<mxfile host="Electron" modified="2024-04-09T06:21:32.239Z" agent="Mozilla/5.0 (Windows NT 10.0; Win64; x64) AppleWebKit/537.36 (KHTML, like Gecko) draw.io/24.1.0 Chrome/120.0.6099.109 Electron/28.1.0 Safari/537.36" etag="UBTXblwSi8Z6tcudgmHU" version="24.1.0" type="device" pages="3">
  <diagram name="Seite-1" id="szP89qv7f0fRFPtCIr3n">
    <mxGraphModel dx="1105" dy="887" grid="1" gridSize="10" guides="1" tooltips="1" connect="1" arrows="1" fold="1" page="1" pageScale="1" pageWidth="827" pageHeight="1169" math="0" shadow="0">
      <root>
        <mxCell id="0" />
        <mxCell id="1" parent="0" />
        <mxCell id="7dojlz4AbCV3QBrprnA4-2" value="" style="html=1;verticalLabelPosition=bottom;align=center;labelBackgroundColor=#ffffff;verticalAlign=top;strokeWidth=2;strokeColor=#333333;shadow=1;dashed=0;shape=mxgraph.ios7.icons.box;" parent="1" vertex="1">
          <mxGeometry x="100" y="90" width="70" height="80" as="geometry" />
        </mxCell>
        <mxCell id="7dojlz4AbCV3QBrprnA4-3" value="" style="html=1;verticalLabelPosition=bottom;align=center;labelBackgroundColor=#ffffff;verticalAlign=top;strokeWidth=2;strokeColor=#333333;shadow=1;dashed=0;shape=mxgraph.ios7.icons.box;" parent="1" vertex="1">
          <mxGeometry x="180" y="90" width="70" height="80" as="geometry" />
        </mxCell>
        <mxCell id="7dojlz4AbCV3QBrprnA4-4" value="" style="html=1;verticalLabelPosition=bottom;align=center;labelBackgroundColor=#ffffff;verticalAlign=top;strokeWidth=2;strokeColor=#333333;shadow=1;dashed=0;shape=mxgraph.ios7.icons.box;" parent="1" vertex="1">
          <mxGeometry x="260" y="90" width="70" height="80" as="geometry" />
        </mxCell>
        <mxCell id="7dojlz4AbCV3QBrprnA4-5" value="" style="html=1;verticalLabelPosition=bottom;align=center;labelBackgroundColor=#ffffff;verticalAlign=top;strokeWidth=2;strokeColor=#333333;shadow=1;dashed=0;shape=mxgraph.ios7.icons.box;" parent="1" vertex="1">
          <mxGeometry x="340" y="90" width="70" height="80" as="geometry" />
        </mxCell>
        <mxCell id="7dojlz4AbCV3QBrprnA4-8" value="" style="html=1;verticalLabelPosition=bottom;align=center;labelBackgroundColor=#ffffff;verticalAlign=top;strokeWidth=2;strokeColor=#333333;shadow=1;dashed=0;shape=mxgraph.ios7.icons.box;" parent="1" vertex="1">
          <mxGeometry x="580" y="90" width="70" height="80" as="geometry" />
        </mxCell>
        <mxCell id="7dojlz4AbCV3QBrprnA4-9" value="" style="html=1;verticalLabelPosition=bottom;align=center;labelBackgroundColor=#ffffff;verticalAlign=top;strokeWidth=2;strokeColor=#333333;shadow=1;dashed=0;shape=mxgraph.ios7.icons.box;" parent="1" vertex="1">
          <mxGeometry x="660" y="90" width="70" height="80" as="geometry" />
        </mxCell>
        <mxCell id="7dojlz4AbCV3QBrprnA4-10" value="" style="html=1;verticalLabelPosition=bottom;align=center;labelBackgroundColor=#ffffff;verticalAlign=top;strokeWidth=2;strokeColor=#333333;shadow=1;dashed=0;shape=mxgraph.ios7.icons.box;" parent="1" vertex="1">
          <mxGeometry x="740" y="90" width="70" height="80" as="geometry" />
        </mxCell>
        <mxCell id="7dojlz4AbCV3QBrprnA4-11" value="" style="html=1;verticalLabelPosition=bottom;align=center;labelBackgroundColor=#ffffff;verticalAlign=top;strokeWidth=2;strokeColor=#333333;shadow=1;dashed=0;shape=mxgraph.ios7.icons.box;" parent="1" vertex="1">
          <mxGeometry x="820" y="90" width="70" height="80" as="geometry" />
        </mxCell>
        <mxCell id="7dojlz4AbCV3QBrprnA4-12" value="" style="html=1;verticalLabelPosition=bottom;align=center;labelBackgroundColor=#ffffff;verticalAlign=top;strokeWidth=2;strokeColor=#333333;shadow=1;dashed=0;shape=mxgraph.ios7.icons.box;" parent="1" vertex="1">
          <mxGeometry x="420" y="90" width="70" height="80" as="geometry" />
        </mxCell>
        <mxCell id="7dojlz4AbCV3QBrprnA4-13" value="" style="html=1;verticalLabelPosition=bottom;align=center;labelBackgroundColor=#ffffff;verticalAlign=top;strokeWidth=2;strokeColor=#333333;shadow=1;dashed=0;shape=mxgraph.ios7.icons.box;" parent="1" vertex="1">
          <mxGeometry x="500" y="90" width="70" height="80" as="geometry" />
        </mxCell>
        <mxCell id="7dojlz4AbCV3QBrprnA4-16" value="" style="endArrow=none;html=1;rounded=0;strokeWidth=9;shadow=1;flowAnimation=0;strokeColor=#333333;fontColor=#333333;" parent="1" edge="1">
          <mxGeometry width="50" height="50" relative="1" as="geometry">
            <mxPoint x="85" y="160" as="sourcePoint" />
            <mxPoint x="905" y="160" as="targetPoint" />
            <Array as="points">
              <mxPoint x="85" y="187" />
              <mxPoint x="905" y="187" />
            </Array>
          </mxGeometry>
        </mxCell>
        <mxCell id="7dojlz4AbCV3QBrprnA4-18" value="00-09" style="text;html=1;align=center;verticalAlign=middle;whiteSpace=wrap;rounded=0;fontSize=20;fontStyle=1;fontColor=#333333;" parent="1" vertex="1">
          <mxGeometry x="75" y="200" width="60" height="30" as="geometry" />
        </mxCell>
        <mxCell id="7dojlz4AbCV3QBrprnA4-19" value="00" style="text;html=1;align=center;verticalAlign=middle;whiteSpace=wrap;rounded=0;fontSize=20;fontStyle=1;fontColor=#333333;" parent="1" vertex="1">
          <mxGeometry x="105" y="130" width="60" height="30" as="geometry" />
        </mxCell>
        <mxCell id="7dojlz4AbCV3QBrprnA4-21" value="01" style="text;html=1;align=center;verticalAlign=middle;whiteSpace=wrap;rounded=0;fontSize=20;fontStyle=1;fontColor=#333333;" parent="1" vertex="1">
          <mxGeometry x="185" y="130" width="60" height="30" as="geometry" />
        </mxCell>
        <mxCell id="7dojlz4AbCV3QBrprnA4-22" value="02" style="text;html=1;align=center;verticalAlign=middle;whiteSpace=wrap;rounded=0;fontSize=20;fontStyle=1;fontColor=#333333;" parent="1" vertex="1">
          <mxGeometry x="265" y="130" width="60" height="30" as="geometry" />
        </mxCell>
        <mxCell id="7dojlz4AbCV3QBrprnA4-23" value="03" style="text;html=1;align=center;verticalAlign=middle;whiteSpace=wrap;rounded=0;fontSize=20;fontStyle=1;fontColor=#333333;" parent="1" vertex="1">
          <mxGeometry x="345" y="130" width="60" height="30" as="geometry" />
        </mxCell>
        <mxCell id="7dojlz4AbCV3QBrprnA4-24" value="04" style="text;html=1;align=center;verticalAlign=middle;whiteSpace=wrap;rounded=0;fontSize=20;fontStyle=1;fontColor=#333333;" parent="1" vertex="1">
          <mxGeometry x="425" y="130" width="60" height="30" as="geometry" />
        </mxCell>
        <mxCell id="7dojlz4AbCV3QBrprnA4-26" value="05" style="text;html=1;align=center;verticalAlign=middle;whiteSpace=wrap;rounded=0;fontSize=20;fontStyle=1;fontColor=#333333;" parent="1" vertex="1">
          <mxGeometry x="505" y="130" width="60" height="30" as="geometry" />
        </mxCell>
        <mxCell id="7dojlz4AbCV3QBrprnA4-27" value="06" style="text;html=1;align=center;verticalAlign=middle;whiteSpace=wrap;rounded=0;fontSize=20;fontStyle=1;fontColor=#333333;" parent="1" vertex="1">
          <mxGeometry x="585" y="130" width="60" height="30" as="geometry" />
        </mxCell>
        <mxCell id="7dojlz4AbCV3QBrprnA4-28" value="07" style="text;html=1;align=center;verticalAlign=middle;whiteSpace=wrap;rounded=0;fontSize=20;fontStyle=1;fontColor=#333333;" parent="1" vertex="1">
          <mxGeometry x="665" y="130" width="60" height="30" as="geometry" />
        </mxCell>
        <mxCell id="7dojlz4AbCV3QBrprnA4-29" value="08" style="text;html=1;align=center;verticalAlign=middle;whiteSpace=wrap;rounded=0;fontSize=20;fontStyle=1;fontColor=#333333;" parent="1" vertex="1">
          <mxGeometry x="745" y="130" width="60" height="30" as="geometry" />
        </mxCell>
        <mxCell id="7dojlz4AbCV3QBrprnA4-30" value="09" style="text;html=1;align=center;verticalAlign=middle;whiteSpace=wrap;rounded=0;fontSize=20;fontStyle=1;fontColor=#333333;" parent="1" vertex="1">
          <mxGeometry x="825" y="130" width="60" height="30" as="geometry" />
        </mxCell>
        <mxCell id="7dojlz4AbCV3QBrprnA4-31" value="" style="html=1;verticalLabelPosition=bottom;align=center;labelBackgroundColor=#ffffff;verticalAlign=top;strokeWidth=2;strokeColor=#333333;shadow=1;dashed=0;shape=mxgraph.ios7.icons.box;fontColor=#000000;" parent="1" vertex="1">
          <mxGeometry x="100" y="255" width="70" height="80" as="geometry" />
        </mxCell>
        <mxCell id="7dojlz4AbCV3QBrprnA4-32" value="" style="html=1;verticalLabelPosition=bottom;align=center;labelBackgroundColor=#ffffff;verticalAlign=top;strokeWidth=2;strokeColor=#333333;shadow=1;dashed=0;shape=mxgraph.ios7.icons.box;fontColor=#000000;" parent="1" vertex="1">
          <mxGeometry x="180" y="255" width="70" height="80" as="geometry" />
        </mxCell>
        <mxCell id="7dojlz4AbCV3QBrprnA4-33" value="" style="html=1;verticalLabelPosition=bottom;align=center;labelBackgroundColor=#ffffff;verticalAlign=top;strokeWidth=2;strokeColor=#333333;shadow=1;dashed=0;shape=mxgraph.ios7.icons.box;fontColor=#000000;" parent="1" vertex="1">
          <mxGeometry x="260" y="255" width="70" height="80" as="geometry" />
        </mxCell>
        <mxCell id="7dojlz4AbCV3QBrprnA4-34" value="" style="html=1;verticalLabelPosition=bottom;align=center;labelBackgroundColor=#ffffff;verticalAlign=top;strokeWidth=2;strokeColor=#333333;shadow=1;dashed=0;shape=mxgraph.ios7.icons.box;fontColor=#000000;" parent="1" vertex="1">
          <mxGeometry x="340" y="255" width="70" height="80" as="geometry" />
        </mxCell>
        <mxCell id="7dojlz4AbCV3QBrprnA4-35" value="" style="html=1;verticalLabelPosition=bottom;align=center;labelBackgroundColor=#ffffff;verticalAlign=top;strokeWidth=2;strokeColor=#333333;shadow=1;dashed=0;shape=mxgraph.ios7.icons.box;fontColor=#000000;" parent="1" vertex="1">
          <mxGeometry x="580" y="255" width="70" height="80" as="geometry" />
        </mxCell>
        <mxCell id="7dojlz4AbCV3QBrprnA4-36" value="" style="html=1;verticalLabelPosition=bottom;align=center;labelBackgroundColor=#ffffff;verticalAlign=top;strokeWidth=2;strokeColor=#333333;shadow=1;dashed=0;shape=mxgraph.ios7.icons.box;fontColor=#000000;" parent="1" vertex="1">
          <mxGeometry x="660" y="255" width="70" height="80" as="geometry" />
        </mxCell>
        <mxCell id="7dojlz4AbCV3QBrprnA4-37" value="" style="html=1;verticalLabelPosition=bottom;align=center;labelBackgroundColor=#ffffff;verticalAlign=top;strokeWidth=2;strokeColor=#333333;shadow=1;dashed=0;shape=mxgraph.ios7.icons.box;fontColor=#000000;" parent="1" vertex="1">
          <mxGeometry x="740" y="255" width="70" height="80" as="geometry" />
        </mxCell>
        <mxCell id="7dojlz4AbCV3QBrprnA4-38" value="" style="html=1;verticalLabelPosition=bottom;align=center;labelBackgroundColor=#ffffff;verticalAlign=top;strokeWidth=2;strokeColor=#333333;shadow=1;dashed=0;shape=mxgraph.ios7.icons.box;fontColor=#000000;" parent="1" vertex="1">
          <mxGeometry x="820" y="255" width="70" height="80" as="geometry" />
        </mxCell>
        <mxCell id="7dojlz4AbCV3QBrprnA4-39" value="" style="html=1;verticalLabelPosition=bottom;align=center;labelBackgroundColor=#ffffff;verticalAlign=top;strokeWidth=2;strokeColor=#333333;shadow=1;dashed=0;shape=mxgraph.ios7.icons.box;fontColor=#000000;" parent="1" vertex="1">
          <mxGeometry x="420" y="255" width="70" height="80" as="geometry" />
        </mxCell>
        <mxCell id="7dojlz4AbCV3QBrprnA4-40" value="" style="html=1;verticalLabelPosition=bottom;align=center;labelBackgroundColor=#ffffff;verticalAlign=top;strokeWidth=2;strokeColor=#333333;shadow=1;dashed=0;shape=mxgraph.ios7.icons.box;fontColor=#000000;" parent="1" vertex="1">
          <mxGeometry x="500" y="255" width="70" height="80" as="geometry" />
        </mxCell>
        <mxCell id="7dojlz4AbCV3QBrprnA4-41" value="" style="endArrow=none;html=1;rounded=0;strokeWidth=9;shadow=1;flowAnimation=0;fontColor=#000000;strokeColor=#333333;" parent="1" edge="1">
          <mxGeometry width="50" height="50" relative="1" as="geometry">
            <mxPoint x="85" y="325" as="sourcePoint" />
            <mxPoint x="905" y="325" as="targetPoint" />
            <Array as="points">
              <mxPoint x="85" y="352" />
              <mxPoint x="905" y="352" />
            </Array>
          </mxGeometry>
        </mxCell>
        <mxCell id="7dojlz4AbCV3QBrprnA4-42" value="10-19" style="text;html=1;align=center;verticalAlign=middle;whiteSpace=wrap;rounded=0;fontSize=20;fontStyle=1;fontColor=#333333;" parent="1" vertex="1">
          <mxGeometry x="75" y="365" width="60" height="30" as="geometry" />
        </mxCell>
        <mxCell id="7dojlz4AbCV3QBrprnA4-43" value="10" style="text;html=1;align=center;verticalAlign=middle;whiteSpace=wrap;rounded=0;fontSize=20;fontStyle=1;fontColor=#333333;" parent="1" vertex="1">
          <mxGeometry x="105" y="295" width="60" height="30" as="geometry" />
        </mxCell>
        <mxCell id="7dojlz4AbCV3QBrprnA4-44" value="11" style="text;html=1;align=center;verticalAlign=middle;whiteSpace=wrap;rounded=0;fontSize=20;fontStyle=1;fontColor=#333333;" parent="1" vertex="1">
          <mxGeometry x="185" y="295" width="60" height="30" as="geometry" />
        </mxCell>
        <mxCell id="7dojlz4AbCV3QBrprnA4-45" value="12" style="text;html=1;align=center;verticalAlign=middle;whiteSpace=wrap;rounded=0;fontSize=20;fontStyle=1;fontColor=#333333;" parent="1" vertex="1">
          <mxGeometry x="265" y="295" width="60" height="30" as="geometry" />
        </mxCell>
        <mxCell id="7dojlz4AbCV3QBrprnA4-46" value="13" style="text;html=1;align=center;verticalAlign=middle;whiteSpace=wrap;rounded=0;fontSize=20;fontStyle=1;fontColor=#333333;" parent="1" vertex="1">
          <mxGeometry x="345" y="295" width="60" height="30" as="geometry" />
        </mxCell>
        <mxCell id="7dojlz4AbCV3QBrprnA4-47" value="14" style="text;html=1;align=center;verticalAlign=middle;whiteSpace=wrap;rounded=0;fontSize=20;fontStyle=1;fontColor=#333333;" parent="1" vertex="1">
          <mxGeometry x="425" y="295" width="60" height="30" as="geometry" />
        </mxCell>
        <mxCell id="7dojlz4AbCV3QBrprnA4-48" value="15" style="text;html=1;align=center;verticalAlign=middle;whiteSpace=wrap;rounded=0;fontSize=20;fontStyle=1;fontColor=#333333;" parent="1" vertex="1">
          <mxGeometry x="505" y="295" width="60" height="30" as="geometry" />
        </mxCell>
        <mxCell id="7dojlz4AbCV3QBrprnA4-49" value="16" style="text;html=1;align=center;verticalAlign=middle;whiteSpace=wrap;rounded=0;fontSize=20;fontStyle=1;fontColor=#333333;" parent="1" vertex="1">
          <mxGeometry x="585" y="295" width="60" height="30" as="geometry" />
        </mxCell>
        <mxCell id="7dojlz4AbCV3QBrprnA4-50" value="17" style="text;html=1;align=center;verticalAlign=middle;whiteSpace=wrap;rounded=0;fontSize=20;fontStyle=1;fontColor=#333333;" parent="1" vertex="1">
          <mxGeometry x="665" y="295" width="60" height="30" as="geometry" />
        </mxCell>
        <mxCell id="7dojlz4AbCV3QBrprnA4-51" value="18" style="text;html=1;align=center;verticalAlign=middle;whiteSpace=wrap;rounded=0;fontSize=20;fontStyle=1;fontColor=#333333;" parent="1" vertex="1">
          <mxGeometry x="745" y="295" width="60" height="30" as="geometry" />
        </mxCell>
        <mxCell id="7dojlz4AbCV3QBrprnA4-52" value="19" style="text;html=1;align=center;verticalAlign=middle;whiteSpace=wrap;rounded=0;fontSize=20;fontStyle=1;fontColor=#333333;" parent="1" vertex="1">
          <mxGeometry x="825" y="295" width="60" height="30" as="geometry" />
        </mxCell>
        <mxCell id="7dojlz4AbCV3QBrprnA4-55" value="..." style="text;html=1;align=left;verticalAlign=middle;whiteSpace=wrap;rounded=0;fontSize=31;fontStyle=1;fontColor=#333333;" parent="1" vertex="1">
          <mxGeometry x="80" y="410" width="60" height="30" as="geometry" />
        </mxCell>
        <mxCell id="7dojlz4AbCV3QBrprnA4-59" value="" style="html=1;verticalLabelPosition=bottom;align=center;labelBackgroundColor=#ffffff;verticalAlign=top;strokeWidth=2;strokeColor=#333333;shadow=1;dashed=0;shape=mxgraph.ios7.icons.box;" parent="1" vertex="1">
          <mxGeometry x="100" y="471" width="70" height="80" as="geometry" />
        </mxCell>
        <mxCell id="7dojlz4AbCV3QBrprnA4-60" value="" style="html=1;verticalLabelPosition=bottom;align=center;labelBackgroundColor=#ffffff;verticalAlign=top;strokeWidth=2;strokeColor=#333333;shadow=1;dashed=0;shape=mxgraph.ios7.icons.box;" parent="1" vertex="1">
          <mxGeometry x="180" y="471" width="70" height="80" as="geometry" />
        </mxCell>
        <mxCell id="7dojlz4AbCV3QBrprnA4-61" value="" style="html=1;verticalLabelPosition=bottom;align=center;labelBackgroundColor=#ffffff;verticalAlign=top;strokeWidth=2;strokeColor=#333333;shadow=1;dashed=0;shape=mxgraph.ios7.icons.box;" parent="1" vertex="1">
          <mxGeometry x="260" y="471" width="70" height="80" as="geometry" />
        </mxCell>
        <mxCell id="7dojlz4AbCV3QBrprnA4-62" value="" style="html=1;verticalLabelPosition=bottom;align=center;labelBackgroundColor=#ffffff;verticalAlign=top;strokeWidth=2;strokeColor=#333333;shadow=1;dashed=0;shape=mxgraph.ios7.icons.box;" parent="1" vertex="1">
          <mxGeometry x="340" y="471" width="70" height="80" as="geometry" />
        </mxCell>
        <mxCell id="7dojlz4AbCV3QBrprnA4-63" value="" style="html=1;verticalLabelPosition=bottom;align=center;labelBackgroundColor=#ffffff;verticalAlign=top;strokeWidth=2;strokeColor=#333333;shadow=1;dashed=0;shape=mxgraph.ios7.icons.box;" parent="1" vertex="1">
          <mxGeometry x="580" y="471" width="70" height="80" as="geometry" />
        </mxCell>
        <mxCell id="7dojlz4AbCV3QBrprnA4-64" value="" style="html=1;verticalLabelPosition=bottom;align=center;labelBackgroundColor=#ffffff;verticalAlign=top;strokeWidth=2;strokeColor=#333333;shadow=1;dashed=0;shape=mxgraph.ios7.icons.box;" parent="1" vertex="1">
          <mxGeometry x="660" y="471" width="70" height="80" as="geometry" />
        </mxCell>
        <mxCell id="7dojlz4AbCV3QBrprnA4-65" value="" style="html=1;verticalLabelPosition=bottom;align=center;labelBackgroundColor=#ffffff;verticalAlign=top;strokeWidth=2;strokeColor=#333333;shadow=1;dashed=0;shape=mxgraph.ios7.icons.box;" parent="1" vertex="1">
          <mxGeometry x="740" y="471" width="70" height="80" as="geometry" />
        </mxCell>
        <mxCell id="7dojlz4AbCV3QBrprnA4-66" value="" style="html=1;verticalLabelPosition=bottom;align=center;labelBackgroundColor=#ffffff;verticalAlign=top;strokeWidth=2;strokeColor=#333333;shadow=1;dashed=0;shape=mxgraph.ios7.icons.box;" parent="1" vertex="1">
          <mxGeometry x="820" y="471" width="70" height="80" as="geometry" />
        </mxCell>
        <mxCell id="7dojlz4AbCV3QBrprnA4-67" value="" style="html=1;verticalLabelPosition=bottom;align=center;labelBackgroundColor=#ffffff;verticalAlign=top;strokeWidth=2;strokeColor=#333333;shadow=1;dashed=0;shape=mxgraph.ios7.icons.box;" parent="1" vertex="1">
          <mxGeometry x="420" y="471" width="70" height="80" as="geometry" />
        </mxCell>
        <mxCell id="7dojlz4AbCV3QBrprnA4-68" value="" style="html=1;verticalLabelPosition=bottom;align=center;labelBackgroundColor=#ffffff;verticalAlign=top;strokeWidth=2;strokeColor=#333333;shadow=1;dashed=0;shape=mxgraph.ios7.icons.box;" parent="1" vertex="1">
          <mxGeometry x="500" y="471" width="70" height="80" as="geometry" />
        </mxCell>
        <mxCell id="7dojlz4AbCV3QBrprnA4-69" value="" style="endArrow=none;html=1;rounded=0;strokeWidth=9;shadow=1;flowAnimation=0;strokeColor=#333333;" parent="1" edge="1">
          <mxGeometry width="50" height="50" relative="1" as="geometry">
            <mxPoint x="85" y="541" as="sourcePoint" />
            <mxPoint x="905" y="541" as="targetPoint" />
            <Array as="points">
              <mxPoint x="85" y="568" />
              <mxPoint x="905" y="568" />
            </Array>
          </mxGeometry>
        </mxCell>
        <mxCell id="7dojlz4AbCV3QBrprnA4-70" value="90-99" style="text;html=1;align=center;verticalAlign=middle;whiteSpace=wrap;rounded=0;fontSize=20;fontStyle=1;fontColor=#333333;" parent="1" vertex="1">
          <mxGeometry x="75" y="581" width="60" height="30" as="geometry" />
        </mxCell>
        <mxCell id="7dojlz4AbCV3QBrprnA4-71" value="90" style="text;html=1;align=center;verticalAlign=middle;whiteSpace=wrap;rounded=0;fontSize=20;fontStyle=1;fontColor=#333333;" parent="1" vertex="1">
          <mxGeometry x="105" y="511" width="60" height="30" as="geometry" />
        </mxCell>
        <mxCell id="7dojlz4AbCV3QBrprnA4-72" value="91" style="text;html=1;align=center;verticalAlign=middle;whiteSpace=wrap;rounded=0;fontSize=20;fontStyle=1;fontColor=#333333;" parent="1" vertex="1">
          <mxGeometry x="185" y="511" width="60" height="30" as="geometry" />
        </mxCell>
        <mxCell id="7dojlz4AbCV3QBrprnA4-73" value="92" style="text;html=1;align=center;verticalAlign=middle;whiteSpace=wrap;rounded=0;fontSize=20;fontStyle=1;fontColor=#333333;" parent="1" vertex="1">
          <mxGeometry x="265" y="511" width="60" height="30" as="geometry" />
        </mxCell>
        <mxCell id="7dojlz4AbCV3QBrprnA4-74" value="93" style="text;html=1;align=center;verticalAlign=middle;whiteSpace=wrap;rounded=0;fontSize=20;fontStyle=1;fontColor=#333333;" parent="1" vertex="1">
          <mxGeometry x="345" y="511" width="60" height="30" as="geometry" />
        </mxCell>
        <mxCell id="7dojlz4AbCV3QBrprnA4-75" value="94" style="text;html=1;align=center;verticalAlign=middle;whiteSpace=wrap;rounded=0;fontSize=20;fontStyle=1;fontColor=#333333;" parent="1" vertex="1">
          <mxGeometry x="425" y="511" width="60" height="30" as="geometry" />
        </mxCell>
        <mxCell id="7dojlz4AbCV3QBrprnA4-76" value="95" style="text;html=1;align=center;verticalAlign=middle;whiteSpace=wrap;rounded=0;fontSize=20;fontStyle=1;fontColor=#333333;" parent="1" vertex="1">
          <mxGeometry x="505" y="511" width="60" height="30" as="geometry" />
        </mxCell>
        <mxCell id="7dojlz4AbCV3QBrprnA4-77" value="96" style="text;html=1;align=center;verticalAlign=middle;whiteSpace=wrap;rounded=0;fontSize=20;fontStyle=1;fontColor=#333333;" parent="1" vertex="1">
          <mxGeometry x="585" y="511" width="60" height="30" as="geometry" />
        </mxCell>
        <mxCell id="7dojlz4AbCV3QBrprnA4-78" value="97" style="text;html=1;align=center;verticalAlign=middle;whiteSpace=wrap;rounded=0;fontSize=20;fontStyle=1;fontColor=#333333;" parent="1" vertex="1">
          <mxGeometry x="665" y="511" width="60" height="30" as="geometry" />
        </mxCell>
        <mxCell id="7dojlz4AbCV3QBrprnA4-79" value="98" style="text;html=1;align=center;verticalAlign=middle;whiteSpace=wrap;rounded=0;fontSize=20;fontStyle=1;fontColor=#333333;" parent="1" vertex="1">
          <mxGeometry x="745" y="511" width="60" height="30" as="geometry" />
        </mxCell>
        <mxCell id="7dojlz4AbCV3QBrprnA4-80" value="99" style="text;html=1;align=center;verticalAlign=middle;whiteSpace=wrap;rounded=0;fontSize=20;fontStyle=1;fontColor=#333333;" parent="1" vertex="1">
          <mxGeometry x="825" y="511" width="60" height="30" as="geometry" />
        </mxCell>
      </root>
    </mxGraphModel>
  </diagram>
  <diagram id="Wc6QLMz0YUSwCIM4IFXM" name="Seite-2">
    <mxGraphModel dx="981" dy="577" grid="1" gridSize="10" guides="1" tooltips="1" connect="1" arrows="1" fold="1" page="1" pageScale="1" pageWidth="827" pageHeight="1169" math="0" shadow="0">
      <root>
        <mxCell id="0" />
        <mxCell id="1" parent="0" />
        <mxCell id="D1b0XJ6WJxNDubro6scz-1" value="" style="html=1;verticalLabelPosition=bottom;align=center;labelBackgroundColor=#ffffff;verticalAlign=top;strokeWidth=2;strokeColor=#333333;shadow=1;dashed=0;shape=mxgraph.ios7.icons.box;fontColor=#000000;" parent="1" vertex="1">
          <mxGeometry x="80" y="180" width="70" height="80" as="geometry" />
        </mxCell>
        <mxCell id="D1b0XJ6WJxNDubro6scz-2" value="11" style="text;html=1;align=center;verticalAlign=middle;whiteSpace=wrap;rounded=0;fontSize=20;fontStyle=1;fontColor=#333333;" parent="1" vertex="1">
          <mxGeometry x="85" y="220" width="60" height="30" as="geometry" />
        </mxCell>
        <mxCell id="D1b0XJ6WJxNDubro6scz-3" value="" style="rounded=0;whiteSpace=wrap;html=1;strokeColor=#333333;strokeWidth=2;shadow=1;" parent="1" vertex="1">
          <mxGeometry x="230" y="190" width="480" height="70" as="geometry" />
        </mxCell>
        <mxCell id="D1b0XJ6WJxNDubro6scz-4" value="11.01" style="text;html=1;align=center;verticalAlign=middle;whiteSpace=wrap;rounded=0;fontSize=20;fontStyle=1;fontColor=#333333;rotation=-90;" parent="1" vertex="1">
          <mxGeometry x="220" y="210" width="60" height="30" as="geometry" />
        </mxCell>
        <mxCell id="D1b0XJ6WJxNDubro6scz-6" value="" style="endArrow=none;html=1;rounded=0;strokeColor=#333333;strokeWidth=2;exitX=0.083;exitY=1.013;exitDx=0;exitDy=0;exitPerimeter=0;" parent="1" source="D1b0XJ6WJxNDubro6scz-3" edge="1">
          <mxGeometry width="50" height="50" relative="1" as="geometry">
            <mxPoint x="270" y="240" as="sourcePoint" />
            <mxPoint x="270" y="190" as="targetPoint" />
          </mxGeometry>
        </mxCell>
        <mxCell id="D1b0XJ6WJxNDubro6scz-7" value="11.02" style="text;html=1;align=center;verticalAlign=middle;whiteSpace=wrap;rounded=0;fontSize=20;fontStyle=1;fontColor=#333333;rotation=-90;" parent="1" vertex="1">
          <mxGeometry x="260" y="210" width="60" height="30" as="geometry" />
        </mxCell>
        <mxCell id="D1b0XJ6WJxNDubro6scz-8" value="" style="endArrow=none;html=1;rounded=0;strokeColor=#333333;strokeWidth=2;exitX=0.083;exitY=1.013;exitDx=0;exitDy=0;exitPerimeter=0;" parent="1" edge="1">
          <mxGeometry width="50" height="50" relative="1" as="geometry">
            <mxPoint x="310" y="261" as="sourcePoint" />
            <mxPoint x="310" y="190" as="targetPoint" />
          </mxGeometry>
        </mxCell>
        <mxCell id="D1b0XJ6WJxNDubro6scz-9" value="11.03" style="text;html=1;align=center;verticalAlign=middle;whiteSpace=wrap;rounded=0;fontSize=20;fontStyle=1;fontColor=#333333;rotation=-90;" parent="1" vertex="1">
          <mxGeometry x="300" y="210" width="60" height="30" as="geometry" />
        </mxCell>
        <mxCell id="D1b0XJ6WJxNDubro6scz-10" value="" style="endArrow=none;html=1;rounded=0;strokeColor=#333333;strokeWidth=2;exitX=0.083;exitY=1.013;exitDx=0;exitDy=0;exitPerimeter=0;" parent="1" edge="1">
          <mxGeometry width="50" height="50" relative="1" as="geometry">
            <mxPoint x="350" y="261" as="sourcePoint" />
            <mxPoint x="350" y="190" as="targetPoint" />
          </mxGeometry>
        </mxCell>
        <mxCell id="D1b0XJ6WJxNDubro6scz-11" value="11.04" style="text;html=1;align=center;verticalAlign=middle;whiteSpace=wrap;rounded=0;fontSize=20;fontStyle=1;fontColor=#333333;rotation=-90;" parent="1" vertex="1">
          <mxGeometry x="340" y="209.5" width="60" height="30" as="geometry" />
        </mxCell>
        <mxCell id="D1b0XJ6WJxNDubro6scz-12" value="" style="endArrow=none;html=1;rounded=0;strokeColor=#333333;strokeWidth=2;exitX=0.083;exitY=1.013;exitDx=0;exitDy=0;exitPerimeter=0;" parent="1" edge="1">
          <mxGeometry width="50" height="50" relative="1" as="geometry">
            <mxPoint x="390" y="260.5" as="sourcePoint" />
            <mxPoint x="390" y="189.5" as="targetPoint" />
          </mxGeometry>
        </mxCell>
        <mxCell id="D1b0XJ6WJxNDubro6scz-15" value="11.86" style="text;html=1;align=center;verticalAlign=middle;whiteSpace=wrap;rounded=0;fontSize=20;fontStyle=1;fontColor=#333333;rotation=-90;" parent="1" vertex="1">
          <mxGeometry x="500" y="211" width="60" height="30" as="geometry" />
        </mxCell>
        <mxCell id="D1b0XJ6WJxNDubro6scz-17" value="" style="curved=1;endArrow=classic;html=1;rounded=0;strokeWidth=2;strokeColor=#B3B3B3;" parent="1" edge="1">
          <mxGeometry width="50" height="50" relative="1" as="geometry">
            <mxPoint x="130" y="160" as="sourcePoint" />
            <mxPoint x="240" y="170" as="targetPoint" />
            <Array as="points">
              <mxPoint x="160" y="120" />
              <mxPoint x="210" y="120" />
            </Array>
          </mxGeometry>
        </mxCell>
        <mxCell id="YW9abiql58WQ9u9dVac2-1" value="" style="endArrow=none;html=1;rounded=0;strokeColor=#333333;strokeWidth=2;exitX=0.083;exitY=1.013;exitDx=0;exitDy=0;exitPerimeter=0;" edge="1" parent="1">
          <mxGeometry width="50" height="50" relative="1" as="geometry">
            <mxPoint x="550" y="261.5" as="sourcePoint" />
            <mxPoint x="550" y="190.5" as="targetPoint" />
          </mxGeometry>
        </mxCell>
        <mxCell id="k070pNPedi4xD88l1PoN-4" value="..." style="text;html=1;align=center;verticalAlign=middle;whiteSpace=wrap;rounded=0;fontSize=20;fontStyle=1;fontColor=#333333;rotation=0;strokeColor=none;" vertex="1" parent="1">
          <mxGeometry x="430" y="210" width="40" height="30" as="geometry" />
        </mxCell>
        <mxCell id="k070pNPedi4xD88l1PoN-7" value="" style="endArrow=none;html=1;rounded=0;strokeColor=#333333;strokeWidth=2;exitX=0.083;exitY=1.013;exitDx=0;exitDy=0;exitPerimeter=0;" edge="1" parent="1">
          <mxGeometry width="50" height="50" relative="1" as="geometry">
            <mxPoint x="510" y="261" as="sourcePoint" />
            <mxPoint x="510" y="190" as="targetPoint" />
          </mxGeometry>
        </mxCell>
      </root>
    </mxGraphModel>
  </diagram>
  <diagram id="SBYziI4V5diltWrEFngY" name="Seite-3">
    <mxGraphModel dx="1105" dy="887" grid="1" gridSize="10" guides="1" tooltips="1" connect="1" arrows="1" fold="1" page="1" pageScale="1" pageWidth="1169" pageHeight="827" math="0" shadow="0">
      <root>
        <mxCell id="0" />
        <mxCell id="1" parent="0" />
        <mxCell id="YaioY_vVPuGi0lKQjhM3-1" value="" style="html=1;verticalLabelPosition=bottom;align=center;labelBackgroundColor=#ffffff;verticalAlign=top;strokeWidth=2;strokeColor=#333333;shadow=1;dashed=0;shape=mxgraph.ios7.icons.box;fontColor=#000000;" parent="1" vertex="1">
          <mxGeometry x="90" y="142.5" width="70" height="80" as="geometry" />
        </mxCell>
        <mxCell id="YaioY_vVPuGi0lKQjhM3-2" value="11" style="text;html=1;align=center;verticalAlign=middle;whiteSpace=wrap;rounded=0;fontSize=20;fontStyle=1;fontColor=#333333;" parent="1" vertex="1">
          <mxGeometry x="95" y="182.5" width="60" height="30" as="geometry" />
        </mxCell>
        <mxCell id="YaioY_vVPuGi0lKQjhM3-3" value="" style="shape=image;verticalLabelPosition=bottom;labelBackgroundColor=default;verticalAlign=top;aspect=fixed;imageAspect=0;image=data:image/png,iVBORw0KGgoAAAANSUhEUgAAAEAAAABACAYAAACqaXHeAAAAAXNSR0IArs4c6QAAAARnQU1BAACxjwv8YQUAAAAJcEhZcwAADsMAAA7DAcdvqGQAAA74SURBVHhezVoLkFTFFb3vMzPL7rILuKxgNBAIGkBLxZQWKPlUovEXShOJGo2FvySiFhoV/CYqIqJEo6XBT/wRywQlIkmBQiVrYmDjEtEKpgr8FR+B3QWZ/bD/nTeTc293v/dmmB1mZncxR890v37dt++5fV+/nlks+gLxh/nxMy3bmptK0clEqQ6Ub6SSdO8lvxrxqe4y6PjCArBsYdNNlkWL5SIl/8uH56V276tPfOf631ZvkXuDDFuXhxSvLmpa5Li02HawAvBAiKVgOo51hNebevkc2lquuw8qDmkAHrl6j/unxc3POxFrrm1bZEOxrQNgSgSGIjH7xBNOjy3RwwYVhywAL8+PDx07KboCAmcZsZZkAAfBUtea0SEWIUiX3jOj/iY9fNCA6QYfyx9sGlVWYa+B+HONSAkCp72+9gOBNn409OOxaP759adrM4MCTD24eO3h5mOiQ+y3bNeaaknKB6stQv0AGFqEN4EKhG05uH5xwQUNY7W5AQemHDysfKz5lGiJVYOV/5oI1ZueCgKvtgoG38OlnxG9PSkEB/dUgEaDSxde1BDVZgcUmG5w8JfHm892o9ZarPIRZnVZpFlxU0oQdCCY/CrsauMAqD76UZiOLo8oywMLnnLAsWpJ82UQv9JxqEJEaBqRstqm7rfj8YBYXv3u9qS8DUwfvT/MfvCSxqv1FAMGmB9YrH6q5WbHtV6Ew65aWU3U/effrK4v0Fxb1Br3KOX5ohVVFnCfxxZf1jhVTzUgwFoMHN54uvVBOHsLtCpkWpfjHgouwZT6kE2Pm3j1P3mvm7xuJVjsaBuh+qc4P0y78fnqPXLVT2S6WBSW3hl3q8e6z0D8LDGID1P6YIWmYNGaqo4P9N2zI0H1Hyck/cUGj9clckfqGqsjMffc65aMYAv9AuLcfxz+Ffe58AFHSp22PoM09sugbpHXSxTf7alnnx8ReUyCx8C3w/0dOttLJBbo6fuFIKZF4s1nWk53I9ZadkytljaZtmCy0ApmxaVU5CEN23tp94cJcvGyM6vt2+RxpmToCsZdeP2T1a+oq+LAU/QL2PDOUKsbrFR4dQ2ljUVInfsFfRO9KYrv8siN4D5UmQyQ+xgTtsfnAz8rLOvpJ2bvPVa7UhRgsn+AQxOMGCPI1LMx/T6EuBa1fO5RT4c6/Bjhpq8ciLTgzACDlbh+SLtSFGCmeCxb0OTA4bHGIeO4cjJwOuy8bGhyH0Sd3wBNDXj2I7hvVj003lxLyZmh6z4t+taTc/aO1y4VDJgoHlVfdobDidHGGV+srJpyNuywEgRyEDi1seF1dSapcz9WH3Xc8m0EY1BmEx6wBK4crjwqHDBRPPD8j4JjIw5wWoQETnKd2/y69OUxRO0tOPVgI1T9M4T7ddNfUx6VgI7DISoOMF88OP3hmBt2WhxPS2UtJGv6WtTejGOv9Gdx6X2MYFUP2jOJ7MH2WRwwvHgg+l81TgfOw2EIM6tmVk52d50F4jTqSTz/3R2oYyMMCzTCTZuUOoBmHwgTdodqlwoGhhcPTIw3gHLSiBWHQxlg7kud9wYODgcCfZLJFHn81Tetn7KRNs4vTWDSifZK7VLBgNniAadUAHh1Q44ahq+l7u8N7LgKAD//srpyjwOk+gTjfJF+YLPw0G+C61fsj+FENkatQthhQzjNKy7Oh9tBzgC0y3cBgH8c9fv5IlWbiOYA6bHhuUI8UlkqHBheHEpKoiMdxx7li9L0V4vraSueEQi+F8ocQzUG7Vq4aZNS+vC9ELnNonHarYKB4cWhtmbnuNaWrgqXNzBxNBApjoYF8DWTBbMYTRt7N7/GTB9fINclELoNfdICayiBkfbxf7wvXtRPZjBTHN5Ztu+CFU9tp21bW3AesMlhR7VjvgBxEDSlUAnkNg6efPvz7+NeWtAC0dxuSt+WbgPHYDs5SrtWEDC8cMyaXDcqWmFfvL8+Qa/dv5Pe39ConPFXk4Uo+qkfDoZ8EEWiFrkx3Jd7eizqRrwWp9pDZSbRXgobJ2v3CgKGFwHLvhSfVQ6cd8stevPuPbS+ZjcCkMKhxhZHlVDjtA6EvuYSn7L6JWXcHoiX+9xXSkUlFDYkwMqWCixogmxZ57HVQgHTheGySetL4edP9aU4WDrBpr/Pj9O6vyIIEf2LrqYvBIMyg8CChlTwBeqmHZX0FTZi1X294tnqZy1b2FTw3w8wtDDYtns+HJ5AFr/A+S8YimXHWlRzzz56r66RojFkAa+qiA6cZKHcxqUQKB+GvnwpfZR4P0gh4Uy+F6Zp0/eHYtw1ymr+wNDCgEmuldNLJhGQ0klEqxY20PZtzRQtseEcC9Cr7hPXyo4chcuQAQ7/CsTtLIT7iCA9TgtUorW90P6i6Pf72auLCssCDMsfs45757vwfqpafSb+FzXMFFl4pp1SotVLd1F3dw9/W1QiWFxaX5ABE/yH0JJy5Qa0aLFKlDxG+trPBr9N1ZVwHQiLKjHHnWIsT2B4/oDx63B+QxmQbJRMfR3B15LPVnbR+3V7KOLv8DxYURfSjtHieMVhyg0jRpWqj7k2okW4pqkHbTLfFcsfavqGGMwDGJYfLj++9gQYP4cFy+pzaeoZ16WTLfrnK3tpf1uXygKMN6nvR0AXSS9FFVWO2jC5DxpFjJQ6E5h8X6+4ypAgMEF/JluhhxGEvA5GGJIfYPYaiHNlooOQn+l4bS9t2bRPssAI9ssQkh5ehaU2HgN1M1O8EsVtnOKBcKaqB9eG6HwSTNwhBg8C7n5QXH7C+jFw/iJ2jEXIRKbEqvvUbdxnyNE2vf92E3mep9pBdtjFqTESdbBJOhQbErDqS1Fpi0R48+S3iLHPhHCdAX5G6HtSR2fpp+fRPtyOLDiN/c8FdD84rjyx9l5YvouNc4rLIJ5Ilwbm2x0/3KmkRT0tKbrhuYlUXT2UOjp6qL29k1pbOqiluR1lJ3W09VAigRSAEcuLgDGqGFpO5eXlFHVjyA4LTOoggDK/mlKm4nlkLlXy12uu89uF/76I6y3IsFN/dOvwOHfPhpD72XHFibXDkX6bMPmRsumxAyFHfAvikS7YKbC3lejrF5aRW9pKmzftoV0ftlHTBz3U3ZOUftqMgEunBG+FEciGsaU0bmI1TTh6DI2qHslPngRKgsA9uTPPwf9xyYKNcASBHysVBNRT9NjMucPnyCRZYObvE1dO+de1EPy47PIqtRAAuKFHmpLBosQxIX/wO6ObGhu3UVt9L8Wqkdr883euWTEsmUghe5JyUpz47WqaOn0yja4+XP54av6OaPqKcLSpFWeG6ggAbr1zwS3D+/yLMkvqE1dN2RCFsz834tlxtQOjDprS0DybikpoZIhLw44qodhoPNv48pNLvGx0+C4RKXGpfFSMyqpj9EldnF5avI42vLuJnJiH/QN2xI/Q3Lj2S/lgY7qOYwl/9AUMywHLmwEbxwaTQICeVETyaSyD6luhuY++mMLhn32xWtkgotGZ+2Rj6bAYlVRG6a0XP6U1qzaQR138z+i0WEMV2DSKcdqCDMn5L0vgZg5g55d3PBvU4lX02emAjqaqqyOwBAP9lUBxJw0HEx6m6zpUiSza8vY+Wr3yXUqkusmNOP5isGBRbKYJ6rfOnDe8TWp9IGcA8ARj40OJDyPeP4OHVl1+1pZfhkKlYZYZWLgRnxkE13WF4TbD8pEx2r6xlWrW/AdGemUsCxUf5T9VZ6B45Qe/GLZSXfWN3AGwaQcblHl4EhYuwTACsXOHxPp1EwQWij5J3pHYHsaGxeckVj1be9lhMfpoXRNt/PfH6q/JYhngSnARx/Y3T1/kRM4AwOAL/vPFQRCyOA4KlyyQhbMgkH8aCweC+4Eev8u1+GyistF1gizIzIjyqhhtXLObduxokDmz4JfnzRm+TddzImcAnq6bthonvAc4skqAFqUzQIkNizdkR9U9201Ropf/5UcggCnBKyAgaYSt6JAI1dVspc7OLlkU2WT5tUhUM+O6yieUgoMjdwYAS2qn3YaV/41JfT/9Jb1ZOISmUbfpYFhOkhJ4f7PTJv1FOCJpBPUViL72AmYUr8rWxl7a/N/P/MyH+A583KAv88JBA8B44u2pNyIIS/hRgK9gkAESBEMRn15PWb0IAO8V3H6gkL7E58OS8ih99N7nFI/vlwyF+LvPnV35gXY7L+QVAMajNafMhvBnzaNgnnMjll9VikY8vvjg4NPrdeNkxv3SM8AwU1ROZjxGPB/b/mRzA+8z64ZVVvxau5s3TPbkjXnf37gUon+iREMEAsABMZulnMVBj4+hVoJ279lG8d1dCEaw2plBYJpNMlwaGpi6HId1yUR2JsdNqpo+55HJtXKjAOSdAQaO0zMLK79MHgM46mcAvsZyQPiA4kidd8sEte/nn8aUyL7EM8Mrm4259gOk/p+LEc8oOAD3vz41aVnepVj5FWYvEOGc/hEcYhAAqePM3tXTTj0d/O9+DxSeTUghNDY4A5FdT2n3CkbBAWDMX35SwrZSF0P8KrO5iXCfWC2XqLm5FQen7OIzr8OiMtnX6kt/2/nYjab+oV0rGEUFgHHXy8d12y7NhBNr1euQ0189AhGwJ9FJLZ/j2c+y+oZhIZnXpp4Haxa9Nr1Tu1Uwig4AY96zEzuRBT/EG+EtzgReeRbPgdgXj1OyFxOg3WxsuRgIyl+8Guv8TbtTFPoVAMaNS8a34ZB0Phxaz6sdjUaw+t3UuLNJsiEsvq9ABGKY2cVmUo/rRn98Myoe/Q4AY/ajY1ogbgY2wzoHouvrG6in09OvyOCVZkT2FQhmhsADGO6Hsh6Wd2k3isKABIBx1aLR8crKirPb29uW7tq2t43f+9mE5wpEpsBc1P123rv8uHbtQlEo+CCUD2ZOXHZUrDT6ZWTAMDg7wnWcKhvEjn0YrpkjwSM0y8KCTV0L9IPGNAcf/nqtmHrgjpeOuU1PWxQGJQD54OYz3y3BN8XReHtMguBp2PxOQ3k8WBkOQDgI6eKTTTj+nnT774/eqk0WhS8sANlw3483H4msORUBOAv8Jja4sfxW4CAwjHjP87qTXvKiuS+Mf11u9AP/VwEI46HLt5djU52CU+T3EIQz0DQF4jshfi1WfsFNvxuzUfXsD4j+B0xvlVCT+3w1AAAAAElFTkSuQmCC;" parent="1" vertex="1">
          <mxGeometry x="194.25" y="158.75" width="55.5" height="55.5" as="geometry" />
        </mxCell>
        <mxCell id="YaioY_vVPuGi0lKQjhM3-5" value="" style="rounded=0;whiteSpace=wrap;html=1;strokeColor=#D19A04;strokeWidth=2;shadow=1;" parent="1" vertex="1">
          <mxGeometry x="274" y="245" width="440" height="70" as="geometry" />
        </mxCell>
        <mxCell id="YaioY_vVPuGi0lKQjhM3-7" value="" style="endArrow=none;html=1;rounded=0;strokeColor=#D19A04;strokeWidth=2;" parent="1" edge="1">
          <mxGeometry width="50" height="50" relative="1" as="geometry">
            <mxPoint x="314" y="316" as="sourcePoint" />
            <mxPoint x="314" y="245" as="targetPoint" />
          </mxGeometry>
        </mxCell>
        <mxCell id="YaioY_vVPuGi0lKQjhM3-8" value="11.02" style="text;html=1;align=center;verticalAlign=middle;whiteSpace=wrap;rounded=0;fontSize=20;fontStyle=1;fontColor=#D19A04;rotation=-90;" parent="1" vertex="1">
          <mxGeometry x="304" y="265" width="60" height="30" as="geometry" />
        </mxCell>
        <mxCell id="YaioY_vVPuGi0lKQjhM3-9" value="" style="endArrow=none;html=1;rounded=0;strokeColor=#D19A04;strokeWidth=2;exitX=0.083;exitY=1.013;exitDx=0;exitDy=0;exitPerimeter=0;" parent="1" edge="1">
          <mxGeometry width="50" height="50" relative="1" as="geometry">
            <mxPoint x="354" y="316" as="sourcePoint" />
            <mxPoint x="354" y="245" as="targetPoint" />
          </mxGeometry>
        </mxCell>
        <mxCell id="YaioY_vVPuGi0lKQjhM3-11" value="" style="endArrow=none;html=1;rounded=0;strokeColor=#D19A04;strokeWidth=2;exitX=0.083;exitY=1.013;exitDx=0;exitDy=0;exitPerimeter=0;" parent="1" edge="1">
          <mxGeometry width="50" height="50" relative="1" as="geometry">
            <mxPoint x="394" y="316" as="sourcePoint" />
            <mxPoint x="394" y="245" as="targetPoint" />
          </mxGeometry>
        </mxCell>
        <mxCell id="YaioY_vVPuGi0lKQjhM3-13" value="" style="endArrow=none;html=1;rounded=0;strokeColor=#D19A04;strokeWidth=2;exitX=0.083;exitY=1.013;exitDx=0;exitDy=0;exitPerimeter=0;" parent="1" edge="1">
          <mxGeometry width="50" height="50" relative="1" as="geometry">
            <mxPoint x="434" y="315.5" as="sourcePoint" />
            <mxPoint x="434" y="244.5" as="targetPoint" />
          </mxGeometry>
        </mxCell>
        <mxCell id="YaioY_vVPuGi0lKQjhM3-15" value="" style="endArrow=none;html=1;rounded=0;strokeColor=#D19A04;strokeWidth=2;exitX=0.083;exitY=1.013;exitDx=0;exitDy=0;exitPerimeter=0;" parent="1" edge="1">
          <mxGeometry width="50" height="50" relative="1" as="geometry">
            <mxPoint x="554" y="315.5" as="sourcePoint" />
            <mxPoint x="554" y="244.5" as="targetPoint" />
          </mxGeometry>
        </mxCell>
        <mxCell id="YaioY_vVPuGi0lKQjhM3-16" value="" style="endArrow=none;html=1;rounded=0;strokeColor=#D19A04;strokeWidth=2;exitX=0.083;exitY=1.013;exitDx=0;exitDy=0;exitPerimeter=0;" parent="1" edge="1">
          <mxGeometry width="50" height="50" relative="1" as="geometry">
            <mxPoint x="513.86" y="315.5" as="sourcePoint" />
            <mxPoint x="513.86" y="244.5" as="targetPoint" />
          </mxGeometry>
        </mxCell>
        <mxCell id="YaioY_vVPuGi0lKQjhM3-17" value="11.05" style="text;html=1;align=center;verticalAlign=middle;whiteSpace=wrap;rounded=0;fontSize=20;fontStyle=1;fontColor=#D19A04;rotation=-90;" parent="1" vertex="1">
          <mxGeometry x="424" y="264.5" width="60" height="30" as="geometry" />
        </mxCell>
        <mxCell id="YaioY_vVPuGi0lKQjhM3-18" value="" style="endArrow=none;html=1;rounded=0;strokeColor=#D19A04;strokeWidth=2;exitX=0.083;exitY=1.013;exitDx=0;exitDy=0;exitPerimeter=0;" parent="1" edge="1">
          <mxGeometry width="50" height="50" relative="1" as="geometry">
            <mxPoint x="474" y="316" as="sourcePoint" />
            <mxPoint x="474" y="245" as="targetPoint" />
          </mxGeometry>
        </mxCell>
        <mxCell id="YaioY_vVPuGi0lKQjhM3-20" value="" style="endArrow=none;html=1;rounded=0;strokeColor=#D19A04;strokeWidth=2;exitX=0.083;exitY=1.013;exitDx=0;exitDy=0;exitPerimeter=0;" parent="1" edge="1">
          <mxGeometry width="50" height="50" relative="1" as="geometry">
            <mxPoint x="594" y="316" as="sourcePoint" />
            <mxPoint x="594" y="245" as="targetPoint" />
          </mxGeometry>
        </mxCell>
        <mxCell id="YaioY_vVPuGi0lKQjhM3-21" value="" style="endArrow=none;html=1;rounded=0;strokeColor=#D19A04;strokeWidth=2;exitX=0.083;exitY=1.013;exitDx=0;exitDy=0;exitPerimeter=0;" parent="1" edge="1">
          <mxGeometry width="50" height="50" relative="1" as="geometry">
            <mxPoint x="634" y="315" as="sourcePoint" />
            <mxPoint x="634" y="244" as="targetPoint" />
          </mxGeometry>
        </mxCell>
        <mxCell id="YaioY_vVPuGi0lKQjhM3-23" value="" style="endArrow=none;html=1;rounded=0;strokeColor=#D19A04;strokeWidth=2;exitX=0.083;exitY=1.013;exitDx=0;exitDy=0;exitPerimeter=0;" parent="1" edge="1">
          <mxGeometry width="50" height="50" relative="1" as="geometry">
            <mxPoint x="674" y="315.5" as="sourcePoint" />
            <mxPoint x="674" y="244.5" as="targetPoint" />
          </mxGeometry>
        </mxCell>
        <mxCell id="YaioY_vVPuGi0lKQjhM3-25" value="..." style="text;html=1;align=center;verticalAlign=middle;whiteSpace=wrap;rounded=0;fontSize=20;fontStyle=1;fontColor=#D19A04;rotation=0;strokeColor=none;" parent="1" vertex="1">
          <mxGeometry x="674" y="265" width="40" height="30" as="geometry" />
        </mxCell>
        <mxCell id="YaioY_vVPuGi0lKQjhM3-76" value="" style="shape=image;verticalLabelPosition=bottom;labelBackgroundColor=default;verticalAlign=top;aspect=fixed;imageAspect=0;image=data:image/png,iVBORw0KGgoAAAANSUhEUgAAAEAAAABACAYAAACqaXHeAAAAAXNSR0IArs4c6QAAAARnQU1BAACxjwv8YQUAAAAJcEhZcwAADsMAAA7DAcdvqGQAAAUeSURBVHhe7ZlbiFVVGMfXnmM1alpNM2pF9JBdnoyMLpY155gRaRQW9VCW4cw89FAURT0IkT0UBFaEVnrGCit7CcPsIgXNmUGNNCSi6KJ0s5qcM2F2Q7PO7vdfe59BO2efs891Drh+8Odb3zruPev71trrpnE4HA6Hw+FwOBwOh+PowwvtuNLZm5lCQ441xvc9zzswkk7+Ff7UcMYtAV19mcswN6CL0WloEsqh39APaIfxzdsTzKEtw/1Xqb4hND0BBH4+5jF0ta0ozza0PJtOvhu49aWpCSD4OzCrkHq7Uh4lCcvCct1oWgIIvheTDryqWUES7g/LdaFuCSDAyZgZiMnM7KOhP6te8NtczPvoGFtRG7fz7pfCcs3UnACCOw9zJ5qPlIAE0iz+OVqPXkcb0YWoHuyh0bNZKUZDvyaqTkDH0kwikTCPUNSQVK9HsRdND4pj/IoyaAvahTTzqy2d6Bx0KdIqMRUV4z5GwRNhuSaqSgC9PhHzClpkK+KjkfEUeo4A9tiaCPgbZ2CWorvRiao7jO25g2bOL+uSNS+P1SbgRcySwIvNZ0jf787A5T09Q22mLTeNonr6HzZCzB2pffbHkM6+zEwa+SxFfWJ5FPi5vEujpyYqTgDBX4vZFHix2ekbf+FoOmUnRt6hT6IPXYfORO0ovwn6Er2B1hPgCNZ09A1MSBhvNcWb0W6k7/8efldSa6KaBLyJWRh4sfgJzaWx38jh+esx2gto91eKYbSM516Q09GXIQlmhuf7wyP9qX9VVw8qSgCN78Io67JxuYkgXlOB52/BvIwq+buP8/yDYbnuVJqACzDbUZutKM8mGq9hnn92CFWzC7SzPu+4iPIVaCbScvsj2oqG+P0gtmIqTUA3RstXXLpp2FDHbRkv0W4G5AfVFfM70shTAool/xMOTg9n+5Pac1RE3J7Mo3U6Lh8peBUIXhNntcGLKegSFNXeWXTlBjroodCPTdkEsAxN5sV3oQ9xtfyVYz/a6BvzQOBaekLbaJbTzsVhORYlPwFeNguzDmm7W44DaCWBrxpNJ78Nquw7NGq+QCfbisazy3j+7Oya1B+hX5LIBNDwszD63k+1FaX5CmmTo1FimX7rZi83qV3P6tLjaVvZPK6hLZvDcklKfQJPojjB07v+/HzwJO4kdC/Bf4CrA1GzgxdxRqylaAIIQCe3BYFXEg37JWxf7b6e567E7EA6qOiqS5PXeKCdZSyiRkAKxVki19Lz2hcoeO3V30La2o43C2jPomm9g6VOqZaoBOhIWg5tR+02lZVCh5mV6Dj5LYD2Cxt8z99GIuYEVcWJSoBud8qxmzFiDyMMFZ0N4iSt2Wj3+R5JmBe4hUQl4IgjaQTfZdckNQcIXWC0KurM1STh/3cKlqgEjC1nJdCGJ08lh6PxQGcHnUILKJ4A39NkpoNGKQ7/3pv2Pzk1UHQuKJqAbH93FlPuCHpK5+KB/Eqh9b7VKXq/GPUJGJY33fnp1uZPW1HI2d5E7/Sw/A76Oyi2LOrUAiITIEhCP0ZLyvNo7J4/5ARkvyv+3acYnRlaGR3HC4iz2bEwi+pQo8NRfsLThcT3BK+rbX4fICGe7govl99ibKWnU3vTyUOhP0bsBMShs3dwquf5KyjqOrvk6GoiH6Mb6aivA/dI6pqAPIwWnQN0ba4NiEYOp+Smori0ir2KniF43TYXpSEJyNPVM9hu2vzjQ7e55HL7s2vnFQx5h8PhcDgcDofD4XA4jnqM+Q+OZVRFZb+pkAAAAABJRU5ErkJggg==;" parent="1" vertex="1">
          <mxGeometry x="190" y="342" width="64" height="64" as="geometry" />
        </mxCell>
        <mxCell id="YaioY_vVPuGi0lKQjhM3-77" value="" style="shape=image;verticalLabelPosition=bottom;labelBackgroundColor=default;verticalAlign=top;aspect=fixed;imageAspect=0;image=data:image/png,iVBORw0KGgoAAAANSUhEUgAAAEAAAABACAYAAACqaXHeAAAAAXNSR0IArs4c6QAAAARnQU1BAACxjwv8YQUAAAAJcEhZcwAADsMAAA7DAcdvqGQAAAtwSURBVHhe7VpLjx1XEa77mLHHnnEmM36FvGPHzoJsHAXIhg2PCAGCBIEs5L9gkVU2CImHhJAVISTYsGKBIuGgCAgLEEg8IoSUkCBFELFwDMHY45mxx87Y87y3+zbfV6eq7+me7r52vLEyLvu79ThVdepUnz7dc2daGUi2MbWNb1u60wDj25buNMD4tqU7DTC+belOA4xvW2p+E8z6kqwuSDZI4Wm2UYRsrVZL2hMz0u5OmvH2pdoGDHrLcuX1H8nG+R9jTeuwdMPASBqgV2PS3v1xmTxyXKYOf1panZ02dvtRbQOu/esVWXr1C9Iau/GLH5NmHYhMfviUzH70a9Jqj4eB24xqz4D+6hq2MhZPj/eBVqclLWyalbefl+W3X4bx9iSWW0m8j2+N9DBAI0SW3/yqrJ171ey3F9XeAlfePI3Cj0vrFncuWoBDNJPOrmMy/eR3pb1jj90fN0hN16EhDYda7a7snD0qnZ13BWMF1TZgiQ1447jgPLtlynAWjE1MyeSBJ7AjdsACA6FTO1wn50Fqcs4jmQndV/CEgpwpN78MMniWXpF0xwmZfuo7MjZ5D2xbqbYBl984jafAcRlgC9NDnSo9q0mzEriCew5+RA48ekzGd+KOw6N1OGhQnYWD6QcX4nbnJZuDui48tlEnDaS/8jvp7X1Zdh991mxFqm3A/GunZf6vx6V71yGkHAOYOEzhnwWep8n0/OiOTcrE1D6Z3n9ApvfOYqIVXCxA3arjcqjJdRJtkax6JKsYyW4nG/xHsn2npPXgTTZg7m8/lx39X8uevQ8id9Rhn6iy6+RAC/d8uy2dLi7/AO8QCRY+SDDu5DHkJNNVjORKH9qadBJtpg/+LXLw+yL3PROGSlTbgM0Lv5cdqy9ZTl8cZX54CG2RHOuFpqkFFOsmK9FWpZvs9tynrJNMLselZ9GAH4jcX92A2sfgDp7+yRXkCIeM4CTXRSmogxOU3a4+pmsxgQ0F2shtXHXLUaerzewF3WSFxeQ281VbvPO2Um0Dwpb1JNHkbsv1ePJ4YuoR6hamchRXGGeMjSniHFGM2iK/3EbwiVBP9Q3QJPHk1A2Nk8cxkAsLj+PiGIPrGlehqy2Oo1yXx2NsB9dQfQOULJkmKk8WybmP6z6564YtNvNzueBT1iOUbbke1ZTreOw2UHMD9OpFSQuTlfXy5BE0j+vmV45TvTxXrFuOOEZ9yrr5+Vi2AbmeGhpgSRR1k0ey6gbVbaxKj+PKem5r0NWGmC15TNZ68SYInslmMNfQiFvAJqicPNYN6h/F1BZIlHLkPlEOtUWyx1TF+dxaGxZuXF3CRyU1HIIEE6gAmBzr5PQJzqaXbaUcuY/bXC/nKcXlMfSryKP+YeHhxS3onq6ObuwWKExetpldJ3PdUPBxPcqhcS5HesHmehRX8GEMtzr+FRZudro00OhbQJP6ZEB5creV9ThOizHZ/fI8cUykV8XlPgTHoivujzuVza4+cG2g5gYwWT4Zk5vsRfqE6uO6yXGcywWfOC6SCz6E5chjqAeEhTvC+HDhBlDN277SiB3AwHjySFebwwswucpH9SjHFh/LoTr9ojwF/7BAXbzGBK4Lp2w+6qfAcAM1HIKeiBkMZV1thoKNRbkeihnqHDf4It1W1j2vzovF6EKHutoMuS3/gsRtlrKGRp8BXpQX48gnjHVy09VW0t2vrG/xcTnMkV9xjXV/s5lP7ouxQkPo2kA3cAjGBVE2m+tqcxljrtPP9dxmclXe3MfibAH5lYxtOPCKV93sJd/QOKiav5oaGuDFMNiTUnad47FPhZ7bKEc5Yl19zB7lKFx1A/VgsxjNF9uHGOohbR3dwC3gRXkm121MwYlcNuQx5RxRnDKXmcMXQ71sY1zQ8/vc7RGGvpYjSLXUcAgSljgoAHWXDVasTzwYAKnxSuDakm/xSSU17qCexn6QM3B+zZ4v3JqS7xhvkiEvt4ZG7ACPZrKwUJXzhYdJBwQKSxJDmkg/AfqpgXokk6ueSK/fl16PHHbwYANMjpEgZ5KyMWyQNYLcFpvDmhHOBKgNVPudoFz4lcjCt9Gig1DchZwLDzpDWUjKq4pFp+my9NIMvKtj9OU/9x/GskheRZN1mJzeYSz4ZdJyHei2V2S8M5A2amq3O9Jp8RtoLCLyCTmG8ZKck/ZDL0nn8Jehb6URDfgmGsBfKFgy9Qwyw7jwVK/6NVlY2y//WP6EvL12nyyl40wMNy+GIbFusnEdN/vQRuNQpra3uymPT56Xx2d/I/sm3pVOZ690O5m02Qh4BC+LMZ4l59GA09J99CuwbaX6BpxHAxa/gQbcO0yoFIr0Lb/ZW5bXl56WHy4+I69sHsA4f5MSruZWMNxkNK84NgLqz/hEPr9rXk4+9Et5cv9PZax7vzahZU1QJ/pbnZLMSfvh99uAha+jAfdBscSanLWExfd678lfFj8nn7l4AsZdMttKME4fm5z3qKYPcbxn87EKvsUWx+suR+OBjRRHV+e6/PaxF+VjB3+CJjyA3cADLdwKeQx5Oh92wJHqBjS/B2hCu7+YDNDDBVd/kG7KhZWH5dTis3CZkL387k0PpgCV1R/gQvITfCviuCFsIR6Pebnr6DvBuXq75Htnvihz15+EaRU+4eVID0TWbJwpmmjEU4BfKbMIS6pN4fbPsAOuymvvPS1/7M3IDLYlbeFUjoEYXxBzsEDarDFhrBijV125xUVwG3fBuCTyp+t3y98vfRKH7hKGMGZzOIKOkhuouQGaICxawcJZIF5F15JxeWv1fhSFoag45fRjRAjx0IDIHt21Q9BeBZ3XwHlscW9dfUDWelS5AzgeFq5PE28AUUP1DdAg7gAmYQU0QAY4QS/ZLXP9LuzR1rMipbcpcumitBYv4CCdgzwnLSBw2C/jYLp8cYileekA7aUFaV9dkA4Q+GLA8mUcZv2wcGu0N+Hs+hhq2YN5e6GGfOEBWjqsdVR/CP7vFyLzz6FFj5iBmcL276OYxeuZPP/Ot+Rn64flbmxHTcMG8K9CsPDWP99A9pv4KxN1rfPPZPPeI9KfnAkN0FXhNsRh+KXpM/LCsedkdncXT4MxfSSGJqAW1ty/hneA0zJ29GafAtqAk2jAYSickMbQAL69Xbo+kOfPhAZMewMU+I8d0FpeKthCQYE7hroKwUZZx8xufunElAzw8sMmBz++cLXl2el35IUnTqIB4zKmDUCDNB13A6RkRTqH0IDHbvopAOL3bFoIU1rCfGuFV2Dfknr1FdA7XRnMHMyRzhwIuHt/joR8ep8kdxF4huwJSJTPSjI1K/2pGQB894wM+MdGNpcflqEZrIc/HIWaQtNZq9cJsYFGPwU0A5OGxDxcdCJOYEX4wofNAMerMV4TI45cBH4GyICcu90Q/MkjOw64kDvUEZoQ5lFdFwpZLxJtAWpj+Q3UcAhyMv6G2JLZwjV5PkloyvDKxPDGBOQ+zEVAxkcuFxHHVo0HaAOYm3WUFq616oWztdRQww5g8FXAklUgFIEieRUKRSM2KjIuWm18KaqICXHkNXHKWRe4Nt+g5dIWAMd8TBn1GqpvwJ5HJMNrcJa+i3yLKHoBuAh9Hvo5yGdlvYc3so1ErgMrmwGrBHRibQPvC8A65HXwjXUD5M31RNEz9CMkxBp+ujQMImRreByC40VEBLlWUYNuVL111oEN3F54DKd4LPbxgoCjozN7KKypguqfAuzalTclu/JniOE3rKGpPH0zuQbTi3Ofkv9u3CNdfV8IYyYEqEhO3ewFmSxw1eNx47iG+IhsESVZWx7ED0YnHvqDTI3zx2T9q0QbRf2tCel+6LPSOfgU9Opr3dAAJyyuxiXNOrq54qf3iGQ3TyMS8qfALh591Y78sqD5j7xvoAEfbBrxGPzg050GGN+2dKcBxrctbfMGiPwfH9vDEybxWIgAAAAASUVORK5CYII=;" parent="1" vertex="1">
          <mxGeometry x="190" y="248" width="62" height="62" as="geometry" />
        </mxCell>
        <mxCell id="KshTt2mQzFYxduHyNeeI-3" value="" style="rounded=0;whiteSpace=wrap;html=1;strokeColor=#6c31e3;strokeWidth=2;shadow=1;" parent="1" vertex="1">
          <mxGeometry x="274" y="151.5" width="440" height="70" as="geometry" />
        </mxCell>
        <mxCell id="KshTt2mQzFYxduHyNeeI-4" value="11.01" style="text;html=1;align=center;verticalAlign=middle;whiteSpace=wrap;rounded=0;fontSize=20;fontStyle=1;fontColor=#6c31e3;rotation=-90;" parent="1" vertex="1">
          <mxGeometry x="264" y="171.5" width="60" height="30" as="geometry" />
        </mxCell>
        <mxCell id="KshTt2mQzFYxduHyNeeI-5" value="" style="endArrow=none;html=1;rounded=0;strokeColor=#6c31e3;strokeWidth=2;" parent="1" edge="1">
          <mxGeometry width="50" height="50" relative="1" as="geometry">
            <mxPoint x="314" y="222.5" as="sourcePoint" />
            <mxPoint x="314" y="151.5" as="targetPoint" />
          </mxGeometry>
        </mxCell>
        <mxCell id="KshTt2mQzFYxduHyNeeI-6" value="11.02" style="text;html=1;align=center;verticalAlign=middle;whiteSpace=wrap;rounded=0;fontSize=20;fontStyle=1;fontColor=#6c31e3;rotation=-90;" parent="1" vertex="1">
          <mxGeometry x="304" y="171.5" width="60" height="30" as="geometry" />
        </mxCell>
        <mxCell id="KshTt2mQzFYxduHyNeeI-7" value="" style="endArrow=none;html=1;rounded=0;strokeColor=#6c31e3;strokeWidth=2;exitX=0.083;exitY=1.013;exitDx=0;exitDy=0;exitPerimeter=0;" parent="1" edge="1">
          <mxGeometry width="50" height="50" relative="1" as="geometry">
            <mxPoint x="354" y="222.5" as="sourcePoint" />
            <mxPoint x="354" y="151.5" as="targetPoint" />
          </mxGeometry>
        </mxCell>
        <mxCell id="KshTt2mQzFYxduHyNeeI-9" value="" style="endArrow=none;html=1;rounded=0;strokeColor=#6c31e3;strokeWidth=2;exitX=0.083;exitY=1.013;exitDx=0;exitDy=0;exitPerimeter=0;" parent="1" edge="1">
          <mxGeometry width="50" height="50" relative="1" as="geometry">
            <mxPoint x="394" y="222.5" as="sourcePoint" />
            <mxPoint x="394" y="151.5" as="targetPoint" />
          </mxGeometry>
        </mxCell>
        <mxCell id="KshTt2mQzFYxduHyNeeI-11" value="" style="endArrow=none;html=1;rounded=0;strokeColor=#6c31e3;strokeWidth=2;exitX=0.083;exitY=1.013;exitDx=0;exitDy=0;exitPerimeter=0;" parent="1" edge="1">
          <mxGeometry width="50" height="50" relative="1" as="geometry">
            <mxPoint x="434" y="222" as="sourcePoint" />
            <mxPoint x="434" y="151" as="targetPoint" />
          </mxGeometry>
        </mxCell>
        <mxCell id="KshTt2mQzFYxduHyNeeI-14" value="" style="endArrow=none;html=1;rounded=0;strokeColor=#6c31e3;strokeWidth=2;exitX=0.083;exitY=1.013;exitDx=0;exitDy=0;exitPerimeter=0;" parent="1" edge="1">
          <mxGeometry width="50" height="50" relative="1" as="geometry">
            <mxPoint x="554" y="222" as="sourcePoint" />
            <mxPoint x="554" y="151" as="targetPoint" />
          </mxGeometry>
        </mxCell>
        <mxCell id="KshTt2mQzFYxduHyNeeI-15" value="" style="endArrow=none;html=1;rounded=0;strokeColor=#6c31e3;strokeWidth=2;exitX=0.083;exitY=1.013;exitDx=0;exitDy=0;exitPerimeter=0;" parent="1" edge="1">
          <mxGeometry width="50" height="50" relative="1" as="geometry">
            <mxPoint x="513.86" y="222" as="sourcePoint" />
            <mxPoint x="513.86" y="151" as="targetPoint" />
          </mxGeometry>
        </mxCell>
        <mxCell id="A2PVugGzoDTVnVJYR9PK-2" value="" style="endArrow=none;html=1;rounded=0;strokeColor=#6c31e3;strokeWidth=2;exitX=0.083;exitY=1.013;exitDx=0;exitDy=0;exitPerimeter=0;" parent="1" edge="1">
          <mxGeometry width="50" height="50" relative="1" as="geometry">
            <mxPoint x="474" y="222.5" as="sourcePoint" />
            <mxPoint x="474" y="151.5" as="targetPoint" />
          </mxGeometry>
        </mxCell>
        <mxCell id="A2PVugGzoDTVnVJYR9PK-5" value="" style="endArrow=none;html=1;rounded=0;strokeColor=#6c31e3;strokeWidth=2;exitX=0.083;exitY=1.013;exitDx=0;exitDy=0;exitPerimeter=0;" parent="1" edge="1">
          <mxGeometry width="50" height="50" relative="1" as="geometry">
            <mxPoint x="594" y="222.5" as="sourcePoint" />
            <mxPoint x="594" y="151.5" as="targetPoint" />
          </mxGeometry>
        </mxCell>
        <mxCell id="A2PVugGzoDTVnVJYR9PK-7" value="" style="endArrow=none;html=1;rounded=0;strokeColor=#6c31e3;strokeWidth=2;exitX=0.083;exitY=1.013;exitDx=0;exitDy=0;exitPerimeter=0;" parent="1" edge="1">
          <mxGeometry width="50" height="50" relative="1" as="geometry">
            <mxPoint x="634" y="221.5" as="sourcePoint" />
            <mxPoint x="634" y="150.5" as="targetPoint" />
          </mxGeometry>
        </mxCell>
        <mxCell id="A2PVugGzoDTVnVJYR9PK-9" value="" style="endArrow=none;html=1;rounded=0;strokeColor=#6c31e3;strokeWidth=2;exitX=0.083;exitY=1.013;exitDx=0;exitDy=0;exitPerimeter=0;" parent="1" edge="1">
          <mxGeometry width="50" height="50" relative="1" as="geometry">
            <mxPoint x="674" y="222" as="sourcePoint" />
            <mxPoint x="674" y="151" as="targetPoint" />
          </mxGeometry>
        </mxCell>
        <mxCell id="A2PVugGzoDTVnVJYR9PK-12" value="..." style="text;html=1;align=center;verticalAlign=middle;whiteSpace=wrap;rounded=0;fontSize=20;fontStyle=1;fontColor=#6c31e3;rotation=0;strokeColor=none;" parent="1" vertex="1">
          <mxGeometry x="674" y="171.5" width="40" height="30" as="geometry" />
        </mxCell>
        <mxCell id="YaioY_vVPuGi0lKQjhM3-4" value="11.08" style="text;html=1;align=center;verticalAlign=middle;whiteSpace=wrap;rounded=0;fontSize=20;fontStyle=1;fontColor=#6c31e3;rotation=-90;" parent="1" vertex="1">
          <mxGeometry x="544" y="171.5" width="60" height="30" as="geometry" />
        </mxCell>
        <mxCell id="YaioY_vVPuGi0lKQjhM3-27" value="" style="rounded=0;whiteSpace=wrap;html=1;strokeColor=#1565C0;strokeWidth=2;shadow=1;fontColor=#1565C0;" parent="1" vertex="1">
          <mxGeometry x="274" y="339" width="440" height="70" as="geometry" />
        </mxCell>
        <mxCell id="YaioY_vVPuGi0lKQjhM3-28" value="11.01" style="text;html=1;align=center;verticalAlign=middle;whiteSpace=wrap;rounded=0;fontSize=20;fontStyle=1;fontColor=#1565C0;rotation=-90;" parent="1" vertex="1">
          <mxGeometry x="264" y="359" width="60" height="30" as="geometry" />
        </mxCell>
        <mxCell id="YaioY_vVPuGi0lKQjhM3-29" value="" style="endArrow=none;html=1;rounded=0;strokeColor=#1565C0;strokeWidth=2;fontColor=#1565C0;" parent="1" edge="1">
          <mxGeometry width="50" height="50" relative="1" as="geometry">
            <mxPoint x="314" y="410" as="sourcePoint" />
            <mxPoint x="314" y="339" as="targetPoint" />
          </mxGeometry>
        </mxCell>
        <mxCell id="YaioY_vVPuGi0lKQjhM3-31" value="" style="endArrow=none;html=1;rounded=0;strokeColor=#1565C0;strokeWidth=2;exitX=0.083;exitY=1.013;exitDx=0;exitDy=0;exitPerimeter=0;fontColor=#1565C0;" parent="1" edge="1">
          <mxGeometry width="50" height="50" relative="1" as="geometry">
            <mxPoint x="354" y="410" as="sourcePoint" />
            <mxPoint x="354" y="339" as="targetPoint" />
          </mxGeometry>
        </mxCell>
        <mxCell id="YaioY_vVPuGi0lKQjhM3-32" value="11.03" style="text;html=1;align=center;verticalAlign=middle;whiteSpace=wrap;rounded=0;fontSize=20;fontStyle=1;fontColor=#1565C0;rotation=-90;" parent="1" vertex="1">
          <mxGeometry x="344" y="359" width="60" height="30" as="geometry" />
        </mxCell>
        <mxCell id="YaioY_vVPuGi0lKQjhM3-33" value="" style="endArrow=none;html=1;rounded=0;strokeColor=#1565C0;strokeWidth=2;exitX=0.083;exitY=1.013;exitDx=0;exitDy=0;exitPerimeter=0;fontColor=#1565C0;" parent="1" edge="1">
          <mxGeometry width="50" height="50" relative="1" as="geometry">
            <mxPoint x="394" y="410" as="sourcePoint" />
            <mxPoint x="394" y="339" as="targetPoint" />
          </mxGeometry>
        </mxCell>
        <mxCell id="YaioY_vVPuGi0lKQjhM3-34" value="11.04" style="text;html=1;align=center;verticalAlign=middle;whiteSpace=wrap;rounded=0;fontSize=20;fontStyle=1;fontColor=#1565C0;rotation=-90;" parent="1" vertex="1">
          <mxGeometry x="384" y="358.5" width="60" height="30" as="geometry" />
        </mxCell>
        <mxCell id="YaioY_vVPuGi0lKQjhM3-35" value="" style="endArrow=none;html=1;rounded=0;strokeColor=#1565C0;strokeWidth=2;exitX=0.083;exitY=1.013;exitDx=0;exitDy=0;exitPerimeter=0;fontColor=#1565C0;" parent="1" edge="1">
          <mxGeometry width="50" height="50" relative="1" as="geometry">
            <mxPoint x="434" y="409.5" as="sourcePoint" />
            <mxPoint x="434" y="338.5" as="targetPoint" />
          </mxGeometry>
        </mxCell>
        <mxCell id="YaioY_vVPuGi0lKQjhM3-36" value="11.07" style="text;html=1;align=center;verticalAlign=middle;whiteSpace=wrap;rounded=0;fontSize=20;fontStyle=1;fontColor=#1565C0;rotation=-90;" parent="1" vertex="1">
          <mxGeometry x="504" y="359" width="60" height="30" as="geometry" />
        </mxCell>
        <mxCell id="YaioY_vVPuGi0lKQjhM3-37" value="" style="endArrow=none;html=1;rounded=0;strokeColor=#1565C0;strokeWidth=2;exitX=0.083;exitY=1.013;exitDx=0;exitDy=0;exitPerimeter=0;fontColor=#1565C0;" parent="1" edge="1">
          <mxGeometry width="50" height="50" relative="1" as="geometry">
            <mxPoint x="554" y="409.5" as="sourcePoint" />
            <mxPoint x="554" y="338.5" as="targetPoint" />
          </mxGeometry>
        </mxCell>
        <mxCell id="YaioY_vVPuGi0lKQjhM3-38" value="" style="endArrow=none;html=1;rounded=0;strokeColor=#1565C0;strokeWidth=2;exitX=0.083;exitY=1.013;exitDx=0;exitDy=0;exitPerimeter=0;fontColor=#1565C0;" parent="1" edge="1">
          <mxGeometry width="50" height="50" relative="1" as="geometry">
            <mxPoint x="513.86" y="409.5" as="sourcePoint" />
            <mxPoint x="513.86" y="338.5" as="targetPoint" />
          </mxGeometry>
        </mxCell>
        <mxCell id="YaioY_vVPuGi0lKQjhM3-39" value="11.05" style="text;html=1;align=center;verticalAlign=middle;whiteSpace=wrap;rounded=0;fontSize=20;fontStyle=1;fontColor=#1565C0;rotation=-90;" parent="1" vertex="1">
          <mxGeometry x="424" y="358.5" width="60" height="30" as="geometry" />
        </mxCell>
        <mxCell id="YaioY_vVPuGi0lKQjhM3-40" value="" style="endArrow=none;html=1;rounded=0;strokeColor=#1565C0;strokeWidth=2;exitX=0.083;exitY=1.013;exitDx=0;exitDy=0;exitPerimeter=0;fontColor=#1565C0;" parent="1" edge="1">
          <mxGeometry width="50" height="50" relative="1" as="geometry">
            <mxPoint x="474" y="410" as="sourcePoint" />
            <mxPoint x="474" y="339" as="targetPoint" />
          </mxGeometry>
        </mxCell>
        <mxCell id="YaioY_vVPuGi0lKQjhM3-42" value="" style="endArrow=none;html=1;rounded=0;strokeColor=#1565C0;strokeWidth=2;exitX=0.083;exitY=1.013;exitDx=0;exitDy=0;exitPerimeter=0;fontColor=#1565C0;" parent="1" edge="1">
          <mxGeometry width="50" height="50" relative="1" as="geometry">
            <mxPoint x="594" y="410" as="sourcePoint" />
            <mxPoint x="594" y="339" as="targetPoint" />
          </mxGeometry>
        </mxCell>
        <mxCell id="YaioY_vVPuGi0lKQjhM3-43" value="" style="endArrow=none;html=1;rounded=0;strokeColor=#1565C0;strokeWidth=2;exitX=0.083;exitY=1.013;exitDx=0;exitDy=0;exitPerimeter=0;fontColor=#1565C0;" parent="1" edge="1">
          <mxGeometry width="50" height="50" relative="1" as="geometry">
            <mxPoint x="634" y="409" as="sourcePoint" />
            <mxPoint x="634" y="338" as="targetPoint" />
          </mxGeometry>
        </mxCell>
        <mxCell id="YaioY_vVPuGi0lKQjhM3-45" value="" style="endArrow=none;html=1;rounded=0;strokeColor=#1565C0;strokeWidth=2;exitX=0.083;exitY=1.013;exitDx=0;exitDy=0;exitPerimeter=0;fontColor=#1565C0;" parent="1" edge="1">
          <mxGeometry width="50" height="50" relative="1" as="geometry">
            <mxPoint x="674" y="409.5" as="sourcePoint" />
            <mxPoint x="674" y="338.5" as="targetPoint" />
          </mxGeometry>
        </mxCell>
        <mxCell id="YaioY_vVPuGi0lKQjhM3-47" value="..." style="text;html=1;align=center;verticalAlign=middle;whiteSpace=wrap;rounded=0;fontSize=20;fontStyle=1;fontColor=#1565C0;rotation=0;strokeColor=none;" parent="1" vertex="1">
          <mxGeometry x="674" y="359" width="40" height="30" as="geometry" />
        </mxCell>
        <mxCell id="YaioY_vVPuGi0lKQjhM3-78" value="" style="shape=image;verticalLabelPosition=bottom;labelBackgroundColor=default;verticalAlign=top;aspect=fixed;imageAspect=0;image=data:image/png,iVBORw0KGgoAAAANSUhEUgAAAEAAAABACAYAAACqaXHeAAAAAXNSR0IArs4c6QAAAARnQU1BAACxjwv8YQUAAAAJcEhZcwAADsMAAA7DAcdvqGQAAAUuSURBVHhe7ZpdbBRVFMfvzGyXXdDS2LVoC/YFcRU/EnQbWiqhD2qVaCABoi/ExAcfBEOLUUkUKtGmJkDjYxN9MwFtjBp5kNAokVatJhJTKyt9ALRbNXyGbmvZjxn/Zz7K3mF2ux8zu025v+Tkzrm3nbnnP/8z02yXCQQCgUAgEAhuUSRzdGQoHA7gBx7B4XJEXGNsdF00Oq4vzlOSJx6iva5G3IYY1zT1V3/b6AytOZFVgO/D4a0Y9iHoZBZXEJ8i3m6JRi/oM/MEFB7CsB/xAqKG5kx+Q+yv2jDSb6Q8jgKg+N0YDhiZI2OIlyDCSSOtLCi+FcNHiFX6hDOvQYSD5vEsNwmA4ulk3yFytgdIIPZAhENGWhlQfAeGHoRfn8iOihZe798wMmTmOrI5ZrITMVfxBF3wIATrH37gfrJfWbn+9cO1KJ7akW7AXMUTMoqi2jg4AVDMEgwRI8ubLTXBRYP/rmtab+aec541tU4N+wZxm+g5VQiRxLcPUo2z2B0QRNxuHOaHBl/JknRfWtWOx5oj9OzwFFyjQ1mtDWjTLCzl41OeaiZJVOMsTi1QHJJuwwPYYH9sbeROY9I9xpsjIZz7ExwewrUW5dWkDth/zT0BbrAFVxmCCI+becmg8FZsnB5e24wZ93BPALRCBvdChAE3WoIsj2EAkesVVzScAL54lEnpuJmVTEktwVmewfIuIDNN8kmqmRlwApxq69PioSZVmYki429pCRTcEl5YXmEqu6ZWpYZn7uAK4wR4ObJder+9Wz7zaDdTpv9gknods0U+bXislug086y4bXnavYK7fjq5lO2bXC6vnbyLK4gTYNXUJXYyUMN2RLazE+1HWEoJMDkRw4orIuh/OGVrCS8sr8DFaYzHputYZ7yOjag+abOSNBZNOAFm8GJdpqXZYky/sbKNffzsh+xq/Ua44TRWvWsJLyxPvX5Z9bO+eAPb+1+NXugS1MCXbxPAogo/eI+aYn2hlazniS429ti7XrXELsSryN23fGIp2zvZwA4ngmyZpMENzjgKYNEIEX4KVLNXml70qiV6ER8gXLd8BywfVX2sFsXnIqcA9KshTfW6JVzByfKL89hjTgEscraEK2YoDiqvUMvbyUsAC+eWmDAWKyBEMZa3U5AAji1x9zOqnLyIlfIqQMVfUf1aoZa3U5AAFpkt0f3kO9qFxm1npNQ1c9V7FFljMTk41jXZoBVqeTtFCWBBLfFjoFp5vmV3l38qugtTKWPFU9JVF9XOzjV1Xb+nfHKhlrdTkgB06Xq0xDlJStWO6q+zpxBnac0jziPaQxO/9KZ8UjJYhOXtlCQAQVto1FT9PA0//PwNhhbEl5S7zFeIZlyD/mhiQU0ree+EKyfJvA/Y4D+ITTjcg3CjJehB/xbO+Rzib2PKPVwRwAlslj6qLrUldMvjXO8Zqft4JgCBjZfSEpzlvcJTAQgUUGhLeGp5O54LYIFi8mkJzy1vp2wCECgsV0uUxfJ2yioAgQIzW4I+oaSXSNksb6fsAligWGqJdsTTOC6b5e1UTAAChR9HHDPTilBRAeYDQgBzvGURAphjJhX8lM9zbqqNE0DTv+6gv5sXKioq5OrjBEjLafoa3DkjW5CcldLKVfNYhxNg4vVGUof+WbFQ6T269bPsDiD+fLPhMJphBw4vGTN54fQs8ZpCrnkZsfPo5i+OGOkNsj7wVvTE6rG4Bofct6ocoI0MQri/jLQ8bPx80wrsj77TONczawpxCsXT//QEAoFAIBAIBAIdxv4HzjbscGY3uXIAAAAASUVORK5CYII=;" parent="1" vertex="1">
          <mxGeometry x="194.5" y="439.5" width="55" height="55" as="geometry" />
        </mxCell>
        <mxCell id="YaioY_vVPuGi0lKQjhM3-53" value="" style="rounded=0;whiteSpace=wrap;html=1;strokeColor=#C62828;strokeWidth=2;shadow=1;" parent="1" vertex="1">
          <mxGeometry x="274" y="432" width="440" height="70" as="geometry" />
        </mxCell>
        <mxCell id="YaioY_vVPuGi0lKQjhM3-55" value="" style="endArrow=none;html=1;rounded=0;strokeColor=#C62828;strokeWidth=2;" parent="1" edge="1">
          <mxGeometry width="50" height="50" relative="1" as="geometry">
            <mxPoint x="314" y="503" as="sourcePoint" />
            <mxPoint x="314" y="432" as="targetPoint" />
          </mxGeometry>
        </mxCell>
        <mxCell id="YaioY_vVPuGi0lKQjhM3-56" value="11.02" style="text;html=1;align=center;verticalAlign=middle;whiteSpace=wrap;rounded=0;fontSize=20;fontStyle=1;fontColor=#c62828;rotation=-90;labelBackgroundColor=default;" parent="1" vertex="1">
          <mxGeometry x="304" y="452" width="60" height="30" as="geometry" />
        </mxCell>
        <mxCell id="YaioY_vVPuGi0lKQjhM3-57" value="" style="endArrow=none;html=1;rounded=0;strokeColor=#C62828;strokeWidth=2;exitX=0.083;exitY=1.013;exitDx=0;exitDy=0;exitPerimeter=0;" parent="1" edge="1">
          <mxGeometry width="50" height="50" relative="1" as="geometry">
            <mxPoint x="354" y="503" as="sourcePoint" />
            <mxPoint x="354" y="432" as="targetPoint" />
          </mxGeometry>
        </mxCell>
        <mxCell id="YaioY_vVPuGi0lKQjhM3-59" value="" style="endArrow=none;html=1;rounded=0;strokeColor=#C62828;strokeWidth=2;exitX=0.083;exitY=1.013;exitDx=0;exitDy=0;exitPerimeter=0;" parent="1" edge="1">
          <mxGeometry width="50" height="50" relative="1" as="geometry">
            <mxPoint x="394" y="503" as="sourcePoint" />
            <mxPoint x="394" y="432" as="targetPoint" />
          </mxGeometry>
        </mxCell>
        <mxCell id="YaioY_vVPuGi0lKQjhM3-61" value="" style="endArrow=none;html=1;rounded=0;strokeColor=#C62828;strokeWidth=2;exitX=0.083;exitY=1.013;exitDx=0;exitDy=0;exitPerimeter=0;" parent="1" edge="1">
          <mxGeometry width="50" height="50" relative="1" as="geometry">
            <mxPoint x="434" y="502.5" as="sourcePoint" />
            <mxPoint x="434" y="431.5" as="targetPoint" />
          </mxGeometry>
        </mxCell>
        <mxCell id="YaioY_vVPuGi0lKQjhM3-62" value="11.07" style="text;html=1;align=center;verticalAlign=middle;whiteSpace=wrap;rounded=0;fontSize=20;fontStyle=1;fontColor=#c62828;rotation=-90;labelBackgroundColor=default;" parent="1" vertex="1">
          <mxGeometry x="504" y="452" width="60" height="30" as="geometry" />
        </mxCell>
        <mxCell id="YaioY_vVPuGi0lKQjhM3-63" value="" style="endArrow=none;html=1;rounded=0;strokeColor=#C62828;strokeWidth=2;exitX=0.083;exitY=1.013;exitDx=0;exitDy=0;exitPerimeter=0;" parent="1" edge="1">
          <mxGeometry width="50" height="50" relative="1" as="geometry">
            <mxPoint x="554" y="502.5" as="sourcePoint" />
            <mxPoint x="554" y="431.5" as="targetPoint" />
          </mxGeometry>
        </mxCell>
        <mxCell id="YaioY_vVPuGi0lKQjhM3-64" value="" style="endArrow=none;html=1;rounded=0;strokeColor=#C62828;strokeWidth=2;exitX=0.083;exitY=1.013;exitDx=0;exitDy=0;exitPerimeter=0;" parent="1" edge="1">
          <mxGeometry width="50" height="50" relative="1" as="geometry">
            <mxPoint x="513.86" y="502.5" as="sourcePoint" />
            <mxPoint x="513.86" y="431.5" as="targetPoint" />
          </mxGeometry>
        </mxCell>
        <mxCell id="YaioY_vVPuGi0lKQjhM3-66" value="" style="endArrow=none;html=1;rounded=0;strokeColor=#C62828;strokeWidth=2;exitX=0.083;exitY=1.013;exitDx=0;exitDy=0;exitPerimeter=0;" parent="1" edge="1">
          <mxGeometry width="50" height="50" relative="1" as="geometry">
            <mxPoint x="474" y="503" as="sourcePoint" />
            <mxPoint x="474" y="432" as="targetPoint" />
          </mxGeometry>
        </mxCell>
        <mxCell id="YaioY_vVPuGi0lKQjhM3-68" value="" style="endArrow=none;html=1;rounded=0;strokeColor=#C62828;strokeWidth=2;exitX=0.083;exitY=1.013;exitDx=0;exitDy=0;exitPerimeter=0;" parent="1" edge="1">
          <mxGeometry width="50" height="50" relative="1" as="geometry">
            <mxPoint x="594" y="503" as="sourcePoint" />
            <mxPoint x="594" y="432" as="targetPoint" />
          </mxGeometry>
        </mxCell>
        <mxCell id="YaioY_vVPuGi0lKQjhM3-69" value="" style="endArrow=none;html=1;rounded=0;strokeColor=#C62828;strokeWidth=2;exitX=0.083;exitY=1.013;exitDx=0;exitDy=0;exitPerimeter=0;" parent="1" edge="1">
          <mxGeometry width="50" height="50" relative="1" as="geometry">
            <mxPoint x="634" y="502" as="sourcePoint" />
            <mxPoint x="634" y="431" as="targetPoint" />
          </mxGeometry>
        </mxCell>
        <mxCell id="YaioY_vVPuGi0lKQjhM3-71" value="" style="endArrow=none;html=1;rounded=0;strokeColor=#C62828;strokeWidth=2;exitX=0.083;exitY=1.013;exitDx=0;exitDy=0;exitPerimeter=0;" parent="1" edge="1">
          <mxGeometry width="50" height="50" relative="1" as="geometry">
            <mxPoint x="674" y="502.5" as="sourcePoint" />
            <mxPoint x="674" y="431.5" as="targetPoint" />
          </mxGeometry>
        </mxCell>
        <mxCell id="YaioY_vVPuGi0lKQjhM3-72" value="11.10" style="text;html=1;align=center;verticalAlign=middle;whiteSpace=wrap;rounded=0;fontSize=20;fontStyle=1;fontColor=#c62828;rotation=-90;labelBackgroundColor=default;" parent="1" vertex="1">
          <mxGeometry x="624" y="452" width="60" height="30" as="geometry" />
        </mxCell>
        <mxCell id="YaioY_vVPuGi0lKQjhM3-73" value="..." style="text;html=1;align=center;verticalAlign=middle;whiteSpace=wrap;rounded=0;fontSize=20;fontStyle=1;fontColor=#c62828;rotation=0;strokeColor=none;labelBackgroundColor=default;" parent="1" vertex="1">
          <mxGeometry x="674" y="452" width="40" height="30" as="geometry" />
        </mxCell>
        <mxCell id="YaioY_vVPuGi0lKQjhM3-102" value="" style="shape=image;verticalLabelPosition=bottom;labelBackgroundColor=default;verticalAlign=top;aspect=fixed;imageAspect=0;image=data:image/png,iVBORw0KGgoAAAANSUhEUgAAAEAAAABACAYAAACqaXHeAAAAAXNSR0IArs4c6QAAAARnQU1BAACxjwv8YQUAAAAJcEhZcwAADsMAAA7DAcdvqGQAAAzmSURBVHhe7VprjCRVFT716Pe7e96zM7Ps7uCKENaFzeIDkLgg7hqSRUUQEzBokASIATGrYoREiNGgwd8YNCpRfIRECOISFBONgBARdFEem2FlGXbeO93TM9NdVX7n3lvdVV01Mz1Ls2vifOlT59xT994659xzH1UztIENbGADG9jA/y80xTuC2E2/SaPLODlK4UhBXBu6xqVFxwxCi05A9dOs57koXRgscmad+y+vq2IoOhaA2E0Pfx3sc6AUjJJmvZ0AMBr3GxWazL0oXQtcv46ADtTv3/+YLAbRkQDA+WvAfihLgGvUqQuAF9Oo8l7r/v2vq7IPuuJvF5co3jms7Vi7KGKUz1FyAJ0KgKn4CcOdNUH49c3SuiIUVTyAzgTAQY5ymkquyPbIQb1j2069rsiyHUvIVlPnI9YrWmSqe/iaRMyVpQF0ZA0wbn+G5/+nQYtC4YJjokQvbMShKx1Z7OpKxlChYcOKVqI+wzA06hlMkwYuK6/YwguMvnb17y8d+JUq+9CRANBdL/0c1ytkoQ0gCQZLifmBTdk0fGvLBo6BGdFo02gegWjT9Sau/MVWjW0MoFNTYN3UmA22vQ5Cfcsh20IX66SV0JkAaDyI6yBRf72D+M6gMwFYKlu0XKb2qEJUW4L7tojCqUaoEb3ffGkY43MOEi4qxonTlW8ombkoo6CRXi9XJ2+z7fp5sjt5p4UpgfuxqYac7OsrlQe3DqbIjLYVCH6sGdFp07Y86bwIrg9X/vL08DUg0BOc/wisfACmFhvWizkrBPlbQRYSKzy6sLrLtSpl0uVK/7ahpJ7Ka5oZ4Rurgtu+EwHwTYHeu/5twr5vnZjzXM8r4yoq+GX+mUaCdDuuW4tlcmq8c/K9UwP/GmBbeZg71LAHRgu7leEryXxx/WvKouCTZXW3z0gEpx8NhOfa4vapgC8A0lgpc0EaKqxeUeZLs93azot60DWyRbFThbBdQHgh7ZbWrSSXsS9P4ZQ5XQNZWNx4IGUFyZQsq4uLe0Oow5fgNnCi7ULgDwAbB5J2syxVXlmHwE5PLViUxmJ0eXeUrhqM0iWFCM1DP1O1aRGB0LhBo6lsL/qWTAB+ODgSKNJWJzy4WXddRNxWPjEIXyy77/xnF6oegl3MQ52fWHLowqJBt36oi3aOZqmYjpCua7Rct+nNqUU6+Nw03fjktGhXhN5S7V3npYwH25VKNFZx9HSJ9ETWIcPkyK86tqapU/+W3Hp3gSi8vPove0trvwt034EAkHMIBnaFO2/TF7Yl6BufHKa+Qky0CcMzL83Sx380RkeWLMojCDzf3e5EZ3hsbWm+Uq3NJSlV0iiWxgNwwF8NaGYgAMNbsiIAor/2ceVr125q412AjeOf6N0vTyC993RF6M4rRhrO/2dikR544ijd+9AYPfbMBFUW5aF71/Y8/fSqTTjxEdVbnFcMIXBE5rRLGshEjNyysU5aCf5dgMm1ln8emZZt+vKeburJy28Lh8bK9MHvv0xX/3qcvvjENF36g9fpaz9+lcpV+Q3yA2eV6Ks7M1TmBYHbewOBi2D/AwhmAJvGP2Uo/6bwBra7GKFzRnOspCUs9/c88gaNzdepmDIoH9eokDXo3r/O06NPHRN1OOj7zi3yp1n01TIFBGfFScOKT2sJgCSv8+KC9L9wMEZ5LHiMI8eq9INXq5SO6eLjBkOwhEYP/21OLIiMkf4k6SmdKmJ7ZHLrSn6ygKP2ip/G/QEAWp0XZWRAf84Uo8oYn8Hb3DIWbtcRUR0X9HZoarkxDVJxk85PGzjocQVZ92Q7z6tN5bk/fh5CQZb98K8Bwjg2VpSkzYKEogXqU46oLi6SWtHohEVVAeykBEIcAjSqT711aYouuk1pfQidAnxp2o0Lhv7N2Rp/yRIQuwC2IswMrinrcQMo3o21Io2RZ1SQCU/OWwiU3AoF3DYnAU5tmWrTR8mIGNR74KazldqHwBQQ5gmHPDK2nz8cWaTZMvY1YKgnQddtTWCFt0gXdZVDCzbt25GjKF5bGWPjC0QIQFJT98FEIEQbqeo8EGzbImt+mpaPvkLm8gJ1X7CXMmftDvE1ZAoEnMelgFpPT9bo2X/N8g2KwcFbLhukobRJM8ctmoPjc7MW3bwrQx89r1fU4Wx55OlJEbzGVBEdSlldOgdOd/RvLxyn2vhhcuaOUaZviDKbzyAjjoOWjYUsBMGoKONc50WJGTaAbz/2Fh2bxQIInDGSoT/fcjr95Io++t6eEv32+mG6+9ptlEnI9P/T3yfp7qfmKMEffNA+4DxznPFxwWLSPuFAJIllRdyjvbRAtYnXqQ6Kp/OUGXkPmZmS+Jhq8wdVUSsIMTguil95HkdhOoTKeBeQLQTDhSM1jUPN9duTdMdVp61+FD40TfvvO0xvYIpksH64W6VwGjI8Ibs6fbw2+5qmJQoaRVN4gMF3ffb4gLv894BUdx6nwsa4OVRfitrlqbhhL1BueDMl+jeTHo3xRBC9IUCCEKBHX7hmZK9q14A/AAee70IzvAvgZQhwnRcA4/cBDsIFOBJ/aU8P7XxXjoqZqDiaLuNwdHSySo8/O0k3Po7UR7ssDLYCzjNgUPlYxTr6YoriOFxFklAFkzEAOF5PFfCKh7r8rRvpri3PUddpA5Qb3U6RdBbOckVOFnl85rKG+hyAFz+7efUAFBAAGIm3QfUy5DFemI6fDt0ML/+LDqXTOu0pRShuang9rtPBY1gkcWQ2EjrBpZCRl5xDaR1/s2KNv5DUUt3aegJgpXJY3atwfoZyPVnKw/FYHuPldVw4LQPgZoGzVH30H9edFgiA/6nKYME8xrvOs45fd3hks0kcMBCIh44u0c/GqnQQi2QMC146qVMCdVZ0nn+gaNSImvZxjVdrx171fxga4O+Hztw4JYwFGthxJpXO3o15XiTLsrDG4cWb/3CiiA9fTB6db7BdBMIO43jTVgX+SaObTjTlNLrMwOkMMgDJQBF+BFf3tG+24xtSZWObSpYKkZGLL6G+MwZIq4yTVZ7GjRUCYdXImZ8g056j7tER6t75Pop2DYgu7Xqr47zouWX11yQmzZCrdwt8AZB7NJvIBf6Ji9AJbYgsRG8bj9ysyzekypXZSCOVpe5d59Po/suoZ0ue7JkjZFVmmoHAPHeQ6triBGW3DlHp/XsoPrgVNzCn63WMuuugdLplxBs6JjJM/x9uFVoCoPFGf0QaKw1tOhGUhag461plUWKd/EkZYHtMU6athRenWKmP+i/aR6fv30fFHoPqk2NYJLGQVt6iRHeWCrsvosTWHaRFEtJxdNDqqLccpkN57Skw950ddVh6AE2mhMUNJ4KyEBVHfglVk1CXOX8KAMfzpSEsQ5dKWNirMbqaKepaNTwW+sTgFhra+wka/diHKdefofSZuyi1fTfpyZxI9fB57klzXyY09W6dMIRGJXfrc/y3gXNhdpSNBpe/oOw4lmPFtMk7jFjsTNbIHtVKrMrMucwSb/eRKHaKeAy7RYbMZBY8hT3ekG2w0usGUhzpXZ2r0vx0mWrYYvl/A+S2JjuUq716jljtlezR8ztMQ9a0B1+5fvhTbIUXfOtto+fmB3+npwoX84P4gQEDGxzERplRpDMCEE0gEEnSYwnlnKcdyny+4JGvzFRofrYqRlZHgHjHdOuJZ3kcbei47OkTlwdfvWEkEADfFDhhRLM6iDkoQxpTLIOXBpzBmaMsuCtj3+f5TAiEo0dkmvLf/UW6ypTlDOD1gTMig3WgZ6RI6VwcOSf1bj03zddaCFkOQ0cCoEUTmh5HGkdTcM4ldlISRUGCQy/qJMgxYpJ4RVcG8j8/eI1ncoNhREzK9+WpZ6hIyVRM6Dhoss7qjrvlMHQkAEamVNYicQRAEkF2DEUmyibeG8C5THAaeS+4dL45moL7MsFTFg7b6DpCxU156h7MUzRm4hAk9U3nZT+u7NWHoTMZEE9XxXf9FsLhA04ahPETHF6TDZ2tRl041+qwj4JBsZQcS8epa7hIpb6s+IOJmBYcDNxrOt1sx3IYOrMGyC0hFGJLFEawcRgRONAcGcWFzkMtZdcJSewoAsEfXvHYRC5JPcMlKnSnxaLXXB9Ann64HIbOBABJoPiK4Bh5DWvIAfI4oEg40RokkAwGAgHHU6U09Y6UKFvAWoOH8fuBtx54qI2dCoD8VtYGOCNaHRTUGhRfORgUQW4dTn3eMXB+yPVix8DUSGfi4h5nhApEqI2dCsBBxdtGc3SY1nAwtBzSBvfZYROLY74fC+VQgeJJtc3adqiNa6Zuuxj87uHmv8uL2dk+3MOKPLx4ZNZ7DjP++0EdKwVDG/zAdQ3rTL08Xbnv5RtGbleP8wHVOoeBew6nYQD2uPWB14eA48x9znMdb5nvr93Gqlu1Fz7TO6cetYENbGADG9jABlwQ/RfGgQj2sgTqFgAAAABJRU5ErkJggg==;" parent="1" vertex="1">
          <mxGeometry x="194.5" y="531" width="54" height="54" as="geometry" />
        </mxCell>
        <mxCell id="MekUan7CCRuvGW6XLEyI-1" value="" style="curved=1;endArrow=classic;html=1;rounded=0;strokeWidth=2;strokeColor=#B3B3B3;" parent="1" edge="1">
          <mxGeometry width="50" height="50" relative="1" as="geometry">
            <mxPoint x="160" y="120" as="sourcePoint" />
            <mxPoint x="276" y="126" as="targetPoint" />
            <Array as="points">
              <mxPoint x="196" y="76" />
              <mxPoint x="246" y="76" />
            </Array>
          </mxGeometry>
        </mxCell>
        <mxCell id="YaioY_vVPuGi0lKQjhM3-80" value="" style="rounded=0;whiteSpace=wrap;html=1;strokeColor=#157FD5;strokeWidth=2;shadow=1;" parent="1" vertex="1">
          <mxGeometry x="274" y="523" width="440" height="70" as="geometry" />
        </mxCell>
        <mxCell id="YaioY_vVPuGi0lKQjhM3-81" value="11.01" style="text;html=1;align=center;verticalAlign=middle;whiteSpace=wrap;rounded=0;fontSize=20;fontStyle=1;fontColor=#157fd5;rotation=-90;" parent="1" vertex="1">
          <mxGeometry x="264" y="543" width="60" height="30" as="geometry" />
        </mxCell>
        <mxCell id="YaioY_vVPuGi0lKQjhM3-82" value="" style="endArrow=none;html=1;rounded=0;strokeColor=#157FD5;strokeWidth=2;" parent="1" edge="1">
          <mxGeometry width="50" height="50" relative="1" as="geometry">
            <mxPoint x="314" y="594" as="sourcePoint" />
            <mxPoint x="314" y="523" as="targetPoint" />
          </mxGeometry>
        </mxCell>
        <mxCell id="YaioY_vVPuGi0lKQjhM3-84" value="" style="endArrow=none;html=1;rounded=0;strokeColor=#157FD5;strokeWidth=2;exitX=0.083;exitY=1.013;exitDx=0;exitDy=0;exitPerimeter=0;" parent="1" edge="1">
          <mxGeometry width="50" height="50" relative="1" as="geometry">
            <mxPoint x="354" y="594" as="sourcePoint" />
            <mxPoint x="354" y="523" as="targetPoint" />
          </mxGeometry>
        </mxCell>
        <mxCell id="YaioY_vVPuGi0lKQjhM3-86" value="" style="endArrow=none;html=1;rounded=0;strokeColor=#157FD5;strokeWidth=2;exitX=0.083;exitY=1.013;exitDx=0;exitDy=0;exitPerimeter=0;" parent="1" edge="1">
          <mxGeometry width="50" height="50" relative="1" as="geometry">
            <mxPoint x="394" y="594" as="sourcePoint" />
            <mxPoint x="394" y="523" as="targetPoint" />
          </mxGeometry>
        </mxCell>
        <mxCell id="YaioY_vVPuGi0lKQjhM3-88" value="" style="endArrow=none;html=1;rounded=0;strokeColor=#157FD5;strokeWidth=2;exitX=0.083;exitY=1.013;exitDx=0;exitDy=0;exitPerimeter=0;" parent="1" edge="1">
          <mxGeometry width="50" height="50" relative="1" as="geometry">
            <mxPoint x="434" y="593.5" as="sourcePoint" />
            <mxPoint x="434" y="522.5" as="targetPoint" />
          </mxGeometry>
        </mxCell>
        <mxCell id="YaioY_vVPuGi0lKQjhM3-90" value="" style="endArrow=none;html=1;rounded=0;strokeColor=#157FD5;strokeWidth=2;exitX=0.083;exitY=1.013;exitDx=0;exitDy=0;exitPerimeter=0;" parent="1" edge="1">
          <mxGeometry width="50" height="50" relative="1" as="geometry">
            <mxPoint x="554" y="593.5" as="sourcePoint" />
            <mxPoint x="554" y="522.5" as="targetPoint" />
          </mxGeometry>
        </mxCell>
        <mxCell id="YaioY_vVPuGi0lKQjhM3-91" value="" style="endArrow=none;html=1;rounded=0;strokeColor=#157FD5;strokeWidth=2;exitX=0.083;exitY=1.013;exitDx=0;exitDy=0;exitPerimeter=0;" parent="1" edge="1">
          <mxGeometry width="50" height="50" relative="1" as="geometry">
            <mxPoint x="513.86" y="593.5" as="sourcePoint" />
            <mxPoint x="513.86" y="522.5" as="targetPoint" />
          </mxGeometry>
        </mxCell>
        <mxCell id="YaioY_vVPuGi0lKQjhM3-93" value="" style="endArrow=none;html=1;rounded=0;strokeColor=#157FD5;strokeWidth=2;exitX=0.083;exitY=1.013;exitDx=0;exitDy=0;exitPerimeter=0;" parent="1" edge="1">
          <mxGeometry width="50" height="50" relative="1" as="geometry">
            <mxPoint x="474" y="594" as="sourcePoint" />
            <mxPoint x="474" y="523" as="targetPoint" />
          </mxGeometry>
        </mxCell>
        <mxCell id="YaioY_vVPuGi0lKQjhM3-94" value="11.06" style="text;html=1;align=center;verticalAlign=middle;whiteSpace=wrap;rounded=0;fontSize=20;fontStyle=1;fontColor=#157fd5;rotation=-90;" parent="1" vertex="1">
          <mxGeometry x="464" y="542.5" width="60" height="30" as="geometry" />
        </mxCell>
        <mxCell id="YaioY_vVPuGi0lKQjhM3-95" value="" style="endArrow=none;html=1;rounded=0;strokeColor=#157FD5;strokeWidth=2;exitX=0.083;exitY=1.013;exitDx=0;exitDy=0;exitPerimeter=0;" parent="1" edge="1">
          <mxGeometry width="50" height="50" relative="1" as="geometry">
            <mxPoint x="594" y="594" as="sourcePoint" />
            <mxPoint x="594" y="523" as="targetPoint" />
          </mxGeometry>
        </mxCell>
        <mxCell id="YaioY_vVPuGi0lKQjhM3-96" value="" style="endArrow=none;html=1;rounded=0;strokeColor=#157FD5;strokeWidth=2;exitX=0.083;exitY=1.013;exitDx=0;exitDy=0;exitPerimeter=0;" parent="1" edge="1">
          <mxGeometry width="50" height="50" relative="1" as="geometry">
            <mxPoint x="634" y="593" as="sourcePoint" />
            <mxPoint x="634" y="522" as="targetPoint" />
          </mxGeometry>
        </mxCell>
        <mxCell id="YaioY_vVPuGi0lKQjhM3-97" value="11.09" style="text;html=1;align=center;verticalAlign=middle;whiteSpace=wrap;rounded=0;fontSize=20;fontStyle=1;fontColor=#157fd5;rotation=-90;" parent="1" vertex="1">
          <mxGeometry x="584" y="543" width="60" height="30" as="geometry" />
        </mxCell>
        <mxCell id="YaioY_vVPuGi0lKQjhM3-98" value="" style="endArrow=none;html=1;rounded=0;strokeColor=#157FD5;strokeWidth=2;exitX=0.083;exitY=1.013;exitDx=0;exitDy=0;exitPerimeter=0;" parent="1" edge="1">
          <mxGeometry width="50" height="50" relative="1" as="geometry">
            <mxPoint x="674" y="593.5" as="sourcePoint" />
            <mxPoint x="674" y="522.5" as="targetPoint" />
          </mxGeometry>
        </mxCell>
        <mxCell id="YaioY_vVPuGi0lKQjhM3-99" value="11.10" style="text;html=1;align=center;verticalAlign=middle;whiteSpace=wrap;rounded=0;fontSize=20;fontStyle=1;fontColor=#157fd5;rotation=-90;" parent="1" vertex="1">
          <mxGeometry x="624" y="543" width="60" height="30" as="geometry" />
        </mxCell>
        <mxCell id="YaioY_vVPuGi0lKQjhM3-100" value="..." style="text;html=1;align=center;verticalAlign=middle;whiteSpace=wrap;rounded=0;fontSize=20;fontStyle=1;fontColor=#157fd5;rotation=0;strokeColor=none;" parent="1" vertex="1">
          <mxGeometry x="674" y="543" width="40" height="30" as="geometry" />
        </mxCell>
      </root>
    </mxGraphModel>
  </diagram>
</mxfile>
